<?xml version="1.0" encoding="utf-8"?>
<!-- Generator: Adobe Illustrator 23.0.1, SVG Export Plug-In . SVG Version: 6.00 Build 0)  -->
<svg version="1.1" id="Слой_1" xmlns="http://www.w3.org/2000/svg" xmlns:xlink="http://www.w3.org/1999/xlink" x="0px" y="0px"
	 viewBox="0 0 512 512" style="enable-background:new 0 0 512 512;" xml:space="preserve">
<style type="text/css">
	.st0{fill:#FFFFFF;}
</style>
<path class="st0" d="M448,384H256c-35.3,0-64-28.7-64-64V64c0-35.3,28.7-64,64-64h140.1C408.8,0,421,5.1,430,14.1L497.9,82
	c9,9,14.1,21.2,14.1,33.9V320C512,355.3,483.3,384,448,384z M64,128h96v48H64c-8.8,0-16,7.2-16,16v256c0,8.8,7.2,16,16,16h192
	c8.8,0,16-7.2,16-16v-32h48v32c0,35.3-28.7,64-64,64H64c-35.3,0-64-28.7-64-64V192C0,156.7,28.7,128,64,128z"/>
</svg>
