<?xml version="1.0" encoding="utf-8"?>
<!-- Generator: Adobe Illustrator 23.0.1, SVG Export Plug-In . SVG Version: 6.00 Build 0)  -->
<svg version="1.1" id="Слой_1" focusable="false"
	 xmlns="http://www.w3.org/2000/svg" xmlns:xlink="http://www.w3.org/1999/xlink" x="0px" y="0px" viewBox="0 0 445 444.3"
	 style="enable-background:new 0 0 445 444.3;" xml:space="preserve">
<path d="M215.9,402.4c4.7-2.7,8.3-2.7,13.4-0.2l8.4,4.2c15.4,7.8,31.4,15.8,47.6,22.3c33,13.1,60.9,17.4,87.9,13.7
	c23.2-3.2,40.5-12.4,52.8-28.1c15.9-20.2,21.2-44.8,16.7-77.3c-5-35.4-18-70.6-40-107.8c-2.8-4.7-2.9-8.7-0.2-13.6l1.5-2.7
	c6.3-11.5,12.8-23.3,18-35.5c12.9-30.3,24.5-63.4,21.5-99.4c-3-36.3-20.5-60.4-52-71.5c-17.2-6.1-36.8-7.2-59.7-3.4
	c-32,5.3-63.5,17.4-102.3,39.3c-4.7,2.7-8.2,2.7-13.4,0.2l-9.4-4.6c-16.3-8.1-33.3-16.5-50.4-23.2c-30.5-12-58-16-84.1-12.4
	C48.9,5.6,31.6,14.8,19.4,30.5C3.1,51.4-2.1,76.7,3.1,110.1c5.3,34.7,18.3,69.1,39.6,105.4c2.9,4.9,2.9,8.8,0.1,13.6
	c-4.8,8.3-10.9,19.3-16.2,30.9c-16,34.9-24.1,65-25.5,94.7c0.1,1.6,0.2,3.3,0.3,4.9c0.2,3.4,0.4,6.8,0.8,10.1
	c3.9,35,21.6,58.1,52.5,68.7c17.2,5.9,36.5,7,59,3.2C145.8,436.3,177.3,424.2,215.9,402.4z M416.6,352.2c0.6,11.5-1.6,24.5-6.2,36.5
	c-6.7,17.8-22.8,27.2-46.6,27.3c-0.2,0-0.5,0-0.7,0c-17.4,0-34.7-3.3-47.7-6.3c-21.7-4.8-41.5-14.1-64.4-26.6l-2.9-1.6l2.7-1.9
	c48.2-33.8,90.7-76,130.2-128.8l2-2.6l1.5,2.9C400,281.4,414.7,314.7,416.6,352.2z M251.1,60.7c23.7-12.1,49.4-23.9,77.3-28.8
	c12.3-2.2,26.7-4.3,40.9-2.6c34.3,3.7,49.4,24.2,47.3,64.7c-1.2,24.7-8.5,50.1-23,79.9c-2.2,4.5-4.5,8.9-6.9,13.7l-4.8,9.3l-2-2.7
	c-35.5-49.7-77.8-92.2-129.2-129.9l-2.7-2L251.1,60.7z M216.3,83.2c1.2-0.8,2.4-1.6,3.7-2.3l2.9-1.8l3,2c1,0.7,2,1.3,3,1.9
	c51.3,35.2,95.8,79.4,132.3,131.5c4,5.7,4,9.9,0.1,15.6c-35.9,52.2-80.3,96.4-132.1,131.6c-2.5,1.7-4.6,2.4-6.6,2.4
	c-2.4,0-4.5-1-6.8-2.6c-50.5-34.8-94.6-78.7-131.1-130.4c-3.8-5.4-5.2-10.1-0.3-17C121.9,162.1,166.3,118.1,216.3,83.2z M31.5,113.2
	c-1.7-10.7-3.5-24.9-1.8-38.5c4-30.9,21-45.9,51.9-46c0.2,0,0.3,0,0.5,0c14.2,0,29.9,2.1,48,6.4c11.4,2.7,22.5,7.2,33.2,11.5
	c3.2,1.3,6.5,2.6,9.7,3.8c4.5,1.8,8.8,3.9,13.7,6.3c2.4,1.2,4.9,2.4,7.7,3.7l3.1,1.5l-2.8,2c-50.1,36.7-92.7,79.2-130.2,130
	l-1.9,2.6l-1.5-2.9C49.2,171.1,36.5,143.8,31.5,113.2z M85,416.6c-3.3,0-6.4-0.2-9.3-0.7c-27.7-4.5-45.3-15.4-47.2-55.3
	c-1.4-28.3,8.3-55.3,17.9-78c2.9-6.9,6.3-13.7,9.8-20.9c1.7-3.5,3.5-7.1,5.3-10.9l1.5-3.1l2,2.8c36,50.1,78.1,92.5,128.4,129.4
	l1.8,1.3l-1.5,1.7c-0.4,0.4-0.7,0.8-0.9,1.1c-0.5,0.7-1,1.3-1.9,1.7c-26.5,13.6-62.1,29.4-102.9,30.8C87,416.5,86,416.6,85,416.6z"
	/>
<path d="M222.6,244c0.1,0,0.1,0,0.1,0c11.7,0,21.2-9.5,21.4-21.3c0.1-11.8-9.1-21.4-21-21.8c-0.3,0-0.5,0-0.8,0
	c-5.3,0-10.4,2.1-14.4,6c-4.3,4.1-6.7,9.8-6.7,15.6C201.3,234.2,210.9,243.9,222.6,244z"/>
</svg>
