<svg xmlns="http://www.w3.org/2000/svg" viewBox="0 0 23.7 19.53"><defs><style>.cls-1{fill:#f80;}</style></defs><g><g><g id="_6te8SM.tif" data-name="6te8SM.tif"><path class="cls-1" d="M17,19.53H13.88a.59.59,0,0,1-.37-.08.62.62,0,0,1-.16-.5l0-3c0-.27,0-.59-.27-.72a.7.7,0,0,0-.38-.07h-1.8a.66.66,0,0,0-.52.15.66.66,0,0,0-.11.46v3a.71.71,0,0,1-.23.66.76.76,0,0,1-.37.06H3.45a.58.58,0,0,1-.39-.09.62.62,0,0,1-.15-.5V13c0-.27,0-.59-.26-.72a.77.77,0,0,0-.4-.07l-1.74,0a.65.65,0,0,1-.36-.07c-.34-.21-.07-.74.22-1L11.53.18c.26-.26.49-.22.75,0C13.49,1.42,14.74,2.62,16,3.82c.08.08.37.43.38.18s0-.32,0-.46V1.05a.56.56,0,0,1,.09-.36.56.56,0,0,1,.44-.13h1.8a.65.65,0,0,1,.49.14.63.63,0,0,1,.1.43l0,4.87c0,.37-.07.93.07,1.07s.41.47.61.66L23.28,11c.31.31.61.86.26,1.11a.75.75,0,0,1-.44.09H21.44a.73.73,0,0,0-.59.18.72.72,0,0,0-.11.48V18.8c0,.25,0,.55-.24.67a.7.7,0,0,1-.35.06Z"/></g></g></g></svg>