<svg version="1.2" baseProfile="tiny" xmlns="http://www.w3.org/2000/svg" xmlns:xlink="http://www.w3.org/1999/xlink" x="0px" y="0px" viewBox="0 0 304.2 191.3" height="13" xml:space="preserve">
                                                        <g>
                                                            <path fill="#8A8A8A" d="M95.6,191.3C42.9,191.3,0,148.4,0,95.6S42.9,0,95.6,0s95.6,42.9,95.6,95.6S148.4,191.3,95.6,191.3z
		 M95.6,17C52.3,17,17,52.3,17,95.6s35.3,78.6,78.6,78.6s78.6-35.3,78.6-78.6S139,17,95.6,17z" />
                                                        </g>
                                                    <g>
                                                            <path fill="#8A8A8A" d="M95.6,104.1H53.7c-4.7,0-8.5-3.8-8.5-8.5s3.8-8.5,8.5-8.5h33.4V42.4c0-4.7,3.8-8.5,8.5-8.5s8.5,3.8,8.5,8.5
		v53.2C104.1,100.3,100.3,104.1,95.6,104.1z" />
                                                        </g>
                                                    </svg>