<svg version="1.1" xmlns="http://www.w3.org/2000/svg" xmlns:xlink="http://www.w3.org/1999/xlink" x="0px" y="0px" viewBox="0 0 40 29.6" style="enable-background:new 0 0 20.3 29.6;" xml:space="preserve" height="17">
                                    <path d="M0,2c0-1.1,0.9-2,2-2h16.3c1.1,0,2,0.9,2,2v25.5c0,1.1-0.9,2-2,2H2c-1.1,0-2-0.9-2-2V2z M8.3,26c-0.5,0-1,0.5-0.9,1
	c0.1,0.5,0.5,0.8,0.9,0.8H12c0.5,0,0.9-0.3,0.9-0.8c0.1-0.6-0.4-1-0.9-1H8.3z M17.1,3.2H3.2v20.8h13.9V3.2z" />
                                </svg>