<?xml version="1.0" encoding="utf-8"?>
<!-- Generator: Adobe Illustrator 23.0.1, SVG Export Plug-In . SVG Version: 6.00 Build 0)  -->
<svg version="1.1" id="Слой_1" focusable="false"
	 xmlns="http://www.w3.org/2000/svg" xmlns:xlink="http://www.w3.org/1999/xlink" x="0px" y="0px" viewBox="0 0 510.8 512"
	 style="enable-background:new 0 0 510.8 512;" xml:space="preserve">
<g>
	<path d="M255.3,1c-0.1,0-0.2,0-0.4,0C186.1,1.1,122.2,27.3,75,74.7C27.3,122.6,0.1,188.4,0.3,255.4
		c-0.3,67.2,26.9,133.2,74.6,181.1c47.4,47.6,111.4,73.8,180.3,73.8c0,0,0.1,0,0.1,0c71.2,0,136.8-27.8,184.6-78.5
		c44.6-47.3,70.3-111.3,70.5-175.5c0.2-67.5-27.3-133.8-75.5-182.1C387.6,27,323.9,1,255.3,1z M416.3,416.3
		c-43.1,43.1-100.2,66.9-160.9,67c-0.1,0-0.2,0-0.2,0c-60.3,0-117.3-23.7-160.5-66.6c-43.3-43-67.1-99.9-67.2-160.2
		c-0.1-60.9,23.8-118.4,67.1-161.6c43.1-43,100-66.7,160.4-66.7c0.2,0,0.4,0,0.6,0C380.8,28.4,482.9,130.4,483,255.4
		C483,316,459.3,373.2,416.3,416.3z"/>
	<path d="M203.5,172.9c-15.7,5.3-26,15.6-31.2,31.5c-10,30.2-20.1,60.3-30.1,90.4l-17,51.1c-4.7,14-2.8,24.7,6.1,33.6
		c8.8,9,19.4,11,33.4,6.4l32.8-10.9c36.5-12.1,73-24.3,109.5-36.4c15.8-5.3,26.1-15.8,31.5-32.3c9.4-28.7,19-57.3,28.6-85.9
		c6.1-18.3,12.2-36.5,18.3-54.8c1-2.9,1.6-5.9,2.2-9c0.2-1.3,0.5-2.5,0.8-3.8c-0.2-10.1-4.4-18.5-11.9-23.8
		c-5.1-3.6-11.2-5.4-17.9-5.4c-4.1,0-8.3,0.7-12.6,2.1c-41.9,13.8-83.8,27.7-125.6,41.7L203.5,172.9z M355,150.9
		c0.6-0.2,1.2-0.2,2-0.2c0.3,0,0.8,0,1.4,0h2.8l-1.4,5.3c-0.4,1.7-0.9,3.4-1.4,5l-15.1,45.4c-10.1,30.3-20.2,60.6-30.1,90.9
		c-2.6,8-7.6,13.1-15.3,15.6c-47.2,15.8-94.4,31.5-141.6,47.3c-1.1,0.4-1.8,0.2-4.4,0.4l-3.2,0.2l1-3c7-21,13.8-41.5,20.6-61.8
		l11.4-34.2c5.3-15.7,10.7-31.9,15.8-47.8c2.5-8,7.5-13.2,15.2-15.7C260.1,182.5,307.6,166.7,355,150.9z"/>
	<path d="M255.3,234.1c0,0-0.1,0-0.1,0c-11.8,0.1-21.4,9.7-21.4,21.5c-0.1,11.7,9.5,21.5,21.3,21.7c0.1,0,0.3,0,0.4,0
		c5.4,0,10.6-2.1,14.6-6c4.2-4,6.6-9.4,6.7-15.1c0.1-5.9-2.1-11.5-6.3-15.7C266.4,236.3,261,234.1,255.3,234.1z"/>
</g>
</svg>
