<?xml version="1.0" encoding="utf-8"?>
<!-- Generator: Adobe Illustrator 23.0.1, SVG Export Plug-In . SVG Version: 6.00 Build 0)  -->
<svg version="1.1" id="Слой_1" focusable="false"
	 xmlns="http://www.w3.org/2000/svg" xmlns:xlink="http://www.w3.org/1999/xlink" x="0px" y="0px" viewBox="0 0 512 399"
	 style="enable-background:new 0 0 512 399;" xml:space="preserve">
<path d="M64,114.4c2.6,2.1,5.2,4.2,7.7,6.2c23.5,18.7,46.9,37.6,70.5,56.2c15.8,12.5,35.5,8.8,44.6-8.9
	c17.1-33.4,33.5-67.3,50.5-101.5c-9.7-6.7-15.6-15.6-16.5-27.5c-1.3-16,8.7-31.5,23.8-36.4c16-5.2,33.4,1.6,42.1,16.6
	c7.6,13.1,5,31.9-6.9,42.2c-4.9,4.2-4.7,7.2-2.1,12.3c15.1,30,29.9,60.1,44.8,90.1c11.1,22.4,29.9,26.7,49.2,11.3
	c25.2-20,50.3-40.1,73.6-58.7c-1.5-10.6-4.3-19.8-3.8-28.8c1-16.9,17.6-30.2,34.9-29.9c17,0.3,32.6,14,34.4,30.1
	c2,18.6-9.1,36.3-26.3,38.9c-8.8,1.4-10.6,5.5-11.9,12.9c-12.2,69.8-24.8,139.6-37.2,209.4c-5.2,29.5-27.2,49-57.2,49.1
	c-81.7,0.3-163.3,0.3-245,0c-30-0.1-51.7-19.6-57-49.2c-12.7-71.7-25.6-143.3-38.4-215c-0.7-4.2-2.6-5.5-6.8-6.2
	C9.8,124.5-3.3,105.5,1.1,84.7c3.9-18.6,23.8-30.5,43.2-26c20.5,4.8,32.3,29.1,23.5,48.3C66.7,109.3,65.5,111.5,64,114.4z M70.6,155
	c0,2.6-0.1,3.5,0,4.4c11.2,61.6,22.3,123.2,33.6,184.8c3.1,16.8,13.5,25.5,30.4,25.7c9,0.1,18,0,27,0c71.2,0,142.5,0,213.7,0
	c18.6,0,28.9-8.7,32.1-26.3c9.2-50.9,18.6-101.8,27.8-152.7c2-11.2,3.9-22.4,6.1-35.1c-3.3,2.4-5.2,3.7-7,5.2
	c-15.6,12.3-31.2,24.6-46.8,37c-31.2,24.6-70.3,16.1-88.3-19.4c-13.2-26.2-26.4-52.3-39.7-78.5c-1.1-2.2-2.3-4.3-3.9-7.4
	c-1.8,3.3-3,5.6-4.2,7.9c-13.5,26.6-26.9,53.1-40.3,79.7c-5,10-12.1,18.1-21.7,23.9c-20.1,12.2-45.6,9.9-65-5.6
	C106.9,184.3,89.3,170.1,70.6,155z"/>
</svg>
