<?xml version="1.0" encoding="utf-8"?>
<!-- Generator: Adobe Illustrator 23.0.1, SVG Export Plug-In . SVG Version: 6.00 Build 0)  -->
<svg version="1.1" id="Слой_1" focusable="false"
	 xmlns="http://www.w3.org/2000/svg" xmlns:xlink="http://www.w3.org/1999/xlink" x="0px" y="0px" viewBox="0 0 445 511.7"
	 style="enable-background:new 0 0 445 511.7;" xml:space="preserve">
<g>
	<path d="M186.4,264.6c-8.7,14.8-16.8,28.9-25.4,42.7c-2.6,4.2-6.4,8.4-10.7,10.7c-14.8,8-30,15.1-45.1,22.6
		c-17.5,8.6-37.3,2.3-45.6-14.6c-8.2-16.6-1.2-36.3,15.8-44.9c10.6-5.4,21.3-10.8,31.8-16.5c2.2-1.2,4.3-3.2,5.7-5.4
		c10.1-16.6,20.2-33.4,30-50.2c4.2-7.2,9.9-12.5,17.6-16c12.1-5.5,23.9-11.5,36-17c3.7-1.7,5.3-3.9,6-7.7c1.5-8.4,3.1-16.9,5.1-25.2
		c3.2-13.3,11.3-22,24.8-24.9c27.8-5.8,55.6-11.8,83.6-16.6c15.1-2.6,29.1,0.5,38.4,14.9c5.7,8.7,12.2,16.9,18,25.5
		c2.2,3.3,4.3,4.9,8.6,3.8c6.6-1.8,13.3-1.6,19.8,0.8c17.1,6.4,26,25.3,19.8,42.4c-5.1,14.1-9.9,28.2-15.3,42.2
		c-3.1,8.1-7.1,16-15.3,20c-13.1,6.4-26.5,6.7-39.7-0.3c-1.4-0.8-2.8-1.7-4.7-2.8c-1.5,6.7-0.3,12.7,2,18.5
		c8.4,20.5,16.6,41.1,25.1,61.6c3.7,9,5.8,18.2,5.4,28c-0.1,2.5,0.4,5.1-0.1,7.6c-2.6,15,3.2,26.1,14.2,36.1
		c16.1,14.6,31,30.3,46.6,45.4c6.6,6.4,7.6,10.2,3.2,18.2c-12.4,22.8-32.2,34.2-57.5,36.2c-16.8,1.4-33.2-0.7-48.6-7.8
		c-19.8,18.1-43.9,20.5-68.8,18.5c-9.7-0.8-19.5-3.6-28.8-6.8c-6.1-2.1-11.5-6.5-17.1-9.8c-7.8,3.9-16.1,9.4-25.2,12.4
		c-29.6,9.7-57.4,5.9-82.5-13.2c-2.8-2.1-4.5-1.5-7.1-0.2C73.2,511.1,8.5,495.5,1,439c-1.5-10.9,1.5-15.1,12.4-17
		c39.5-7.2,74.7-24,106.8-47.7c20.8-15.3,40.4-32,56.6-52.2c8.9-11.1,16.6-22.8,20.9-36.6c1-3.1,0.7-5.4-1.4-7.8
		C193,273.7,190,269.4,186.4,264.6z M265,271.9c-12.6,8.8-26.3,13.1-40.6,15.7c-1.9,0.3-4.6,1.9-5,3.5c-5.3,17.2-14.7,32-25.9,45.8
		c-18.6,22.9-40.9,41.8-64.8,58.8c-29,20.7-60.2,36.7-95.3,44.3c-2.7,0.6-5.4,1.2-8.2,1.9c1.4,10.5,6.7,18.1,14.2,24.2
		c17.2,14,45.2,15.7,64.1,3.9c7.6-4.7,10.6-4.3,17.6,1.3c18.4,14.9,39,21.4,62.6,15.6c11.8-2.9,22.1-8.7,31.3-16.7
		c5.6-4.9,12.9-4.5,16.7,1.3c4.8,7.2,11.7,11,19.4,13.6c14.7,4.9,29.8,5.2,44.9,2.5c11.8-2.1,22.6-6.2,29.8-16.9
		c3.1-4.5,9-4.5,14.2-2.1c6.5,3,13.1,6.2,20,7.6c13.3,2.8,26.8,3.1,39.7-2.1c8.4-3.4,15.5-8.4,19.9-16.9
		C359.9,402,309.2,339.9,265,271.9z M288.6,178c-15.1,0-25.4-0.4-35.6,0.2c-5.9,0.3-12.2,1.3-17.5,3.7c-21.9,10-43.5,20.5-65,31.2
		c-3.4,1.7-6.7,4.6-8.7,7.8c-11,17.7-21.4,35.8-32.3,53.6c-1.8,2.9-4.4,5.6-7.3,7.2c-11.8,6.5-23.8,12.5-35.8,18.6
		c-7.4,3.8-10,9.7-6.9,15.9c3.1,6.1,9.5,7.6,16.9,3.8c13.2-6.6,26.5-13.1,39.6-20c2.8-1.5,5.5-4,7.1-6.7
		c10.7-17.5,21.1-35.2,31.6-52.8c5.6-9.3,14.1-9.7,20.6-1.1c6,7.9,11.8,16,17.9,23.8c1,1.3,3.3,2.6,4.8,2.4
		c12-1.4,23.3-4.9,33.4-11.9c2.8-1.9,3.9-4,3.2-7.6c-2-10.7-3.6-21.5-5.4-32.3c-1.3-7.8,3.5-13.5,11.4-13.7c1.8-0.1,3.7,0,5.6,0
		c17,0,34.1,1.2,50.9-0.5c24.7-2.5,49.2-7.1,73.8-10.8c5.8-0.9,10-6.8,9.2-12.6c-0.8-5.9-6.3-10-12.4-9.1c-2.5,0.3-5,0.8-7.5,1.2
		C348.3,172.7,316.6,180.9,288.6,178z M273.1,221.8c1.2,7.1,2.3,12.7,2.9,18.4c0.7,6.8,3.1,12.8,6.9,18.6
		c21.5,33.2,44.8,65,69.9,95.6c0.8,1,1.1,2.3,1.6,3.5c0.8-0.5,1.7-1.1,2.5-1.6c-1.4-6.1-2.2-12.5-4.5-18.3
		c-7.6-19.6-15.4-39.1-23.7-58.3c-7.1-16.3-8.1-32.4-1.5-48.9c1.3-3.1,2-6.5,2.7-8.9C310.9,221.8,292.3,221.8,273.1,221.8z
		 M350.1,151.9c0.1-0.7,0.3-1.5,0.4-2.2c-4.3-6-9-11.7-12.7-18c-4.8-8.2-12-9.4-20-7.8c-26.7,5.1-53.4,10.4-80.1,16.1
		c-3,0.6-6.5,3.4-7.8,6.1c-2.1,4.4-2.5,9.6-3.6,14.7c5.9-1.5,11-3.7,16.2-3.9c17.6-0.7,35.3-0.4,52.9-1.2
		C313.7,154.9,331.9,153.2,350.1,151.9z M356,216.6c0,2.2-0.1,4,0,5.8c0.2,5.3,2.7,8.9,7.7,10.6c6.1,2,15.2,0.7,17.3-3.1
		c3.1-5.6,5.6-11.6,8.8-18.5C377.7,213.2,367,214.9,356,216.6z"/>
	<path d="M239.4,0.3c27.6,0,50,22.6,49.9,50.3c-0.1,27.3-22.7,49.7-50,49.6c-27.5,0-50-22.7-49.9-50.3C189.5,22.6,212,0.3,239.4,0.3
		z M267.1,50.1c-0.1-15.5-12.5-27.7-28-27.6c-15.3,0.1-27.4,12.4-27.5,27.7c0,15.5,12.3,27.9,27.8,27.8
		C254.9,78,267.2,65.6,267.1,50.1z"/>
	<path d="M100.6,127.6c0.1-27.5,22.9-49.8,50.6-49.6c27.2,0.2,49.5,22.9,49.3,50.3c-0.1,27.5-23,49.8-50.6,49.6
		C122.7,177.7,100.4,155,100.6,127.6z M178.3,128.3c0.1-15.5-12.1-27.9-27.6-28c-15.3,0-27.6,12-27.9,27.3
		c-0.2,15.5,11.9,28.1,27.4,28.2C165.7,155.9,178.2,143.7,178.3,128.3z"/>
</g>
</svg>
