<?xml version="1.0" encoding="utf-8"?>
<!-- Generator: Adobe Illustrator 23.0.1, SVG Export Plug-In . SVG Version: 6.00 Build 0)  -->
<svg version="1.1" id="Слой_1" focusable="false"
	 xmlns="http://www.w3.org/2000/svg" xmlns:xlink="http://www.w3.org/1999/xlink" x="0px" y="0px" viewBox="0 0 448 449"
	 style="enable-background:new 0 0 448 449;" xml:space="preserve">
<g>
	<path d="M86.7,278.5c-18.7-13.3-35.5-28.1-49.1-46c-6.6-8.7-12.8-17.8-18.6-27c-5.2-8.3-3.4-16.8,3.7-20.8c7-4,15-1.4,20.1,6.9
		C56.4,213.6,73,233,93.4,249c1.8,1.4,3.7,2.8,5.6,4.2c0.3,0.2,0.9,0.3,1.7,0.5c1-1.6,2.2-3.2,3.3-5c19.2-33.3,38.2-66.7,57.6-99.9
		c2.6-4.4,2-7-1.2-10.7c-20.9-24.8-25.5-53-14.6-83.1c10.5-29,32.2-46.5,62.2-52.4c35.7-7.1,70.9,9.5,88.7,40.4
		c17.5,30.3,13.5,68.6-10.4,96.2c-3,3.5-2.4,5.7-0.4,9c12.9,22.1,25.6,44.4,38.4,66.5c3.1,5.3,4.8,10.7,1.3,16.4
		c-5.6,9.3-18.1,9.2-24-0.6c-7.7-12.8-14.9-25.8-22.3-38.7c-6-10.5-12.1-21-18.4-32.1c-24.5,11.1-49,11.4-73.9-0.1
		c-21,36.4-41.7,72.4-62.9,109.2c2.9,1.7,5.6,3.4,8.4,4.8c97.8,47.2,215.7,12.1,271.6-80.8c5.3-8.8,9.3-11,16.6-9.4
		c8.6,1.9,13,9.9,9.9,18.1c-0.7,1.9-1.8,3.8-2.9,5.5c-41.4,65.3-99.9,104.4-177.1,113.4c-46.9,5.4-91.9-2.7-134.2-24
		c-1.5-0.7-2.9-1.5-4.4-2.2c-0.4-0.2-0.9-0.2-2-0.3c-1.4,2.3-2.9,4.9-4.4,7.5c-25.8,45.3-51.6,90.7-77.2,136.1
		c-3.2,5.6-7.1,10-13.8,10.4c-10.1,0.5-16.8-9.9-12.6-19.6c1.8-4.3,4.4-8.2,6.7-12.2c24.8-43.5,49.6-86.9,74.4-130.4
		C84.1,283.3,85.3,281.1,86.7,278.5z M279.9,84.8c0.1-30.3-25.6-56.1-56-56.2c-30.2-0.1-56.3,25.8-56.5,55.9
		c-0.1,30.1,25.8,56.1,56.2,56.2C253.9,140.9,279.8,115.2,279.9,84.8z"/>
	<path d="M447.5,433.8c-0.2,6.2-3.1,10.3-8,12.6c-5.2,2.4-10.5,1.9-14.9-2.1c-1.7-1.5-3.1-3.5-4.3-5.4
		c-20.5-35.9-41.1-71.8-61.5-107.8c-5.9-10.3-1.7-20.3,8.9-22c7.5-1.2,12.2,3.1,15.6,9.2c11.7,20.6,23.5,41.2,35.2,61.8
		c8.4,14.7,16.9,29.4,25.2,44.2C445.4,427.3,446.3,430.6,447.5,433.8z"/>
</g>
</svg>
