<svg version="1.2" baseProfile="tiny" xmlns="http://www.w3.org/2000/svg" xmlns:xlink="http://www.w3.org/1999/xlink" x="0px" y="0px" viewBox="0 0 25 25" xml:space="preserve" class="my-0 mx-0" width="28">
                                    <path fill="#3A589F" d="M15,12l-0.1,0 M14.9,12v-1.7c0-0.4,0.1-0.7,0.3-1c0.2-0.2,0.3-0.3,0.5-0.3c0.2-0.1,0.4-0.1,0.6-0.1h2V5
	l-0.4-0.1h-0.2L17,4.8c-0.6-0.1-1.3-0.1-1.9-0.1c-0.7,0-1.3,0.1-2,0.3c-0.6,0.2-1.2,0.6-1.7,1c-0.5,0.5-0.8,1.1-1.1,1.8
	c-0.2,0.7-0.3,1.4-0.3,2V12h-3v4.5h3l-0.1,7.2c-2.1-0.5-4.2-1.6-5.7-3.1c-1.5-1.5-2.6-3.5-3-5.6c-0.5-2.1-0.3-4.3,0.4-6.3
	c0.7-2,2-3.8,3.7-5.2c1.7-1.3,3.7-2.2,5.9-2.4c2.1-0.2,4.3,0.1,6.3,1.1c1.9,0.9,3.6,2.4,4.7,4.2c1.1,1.8,1.8,3.9,1.8,6.1
	c0,2.6-0.9,5.2-2.6,7.2c-1.7,2-4,3.5-6.5,4v-7.3h2.7l0.1-0.4l0.6-4H14.9z" />
                                </svg>