
                                <svg version="1.1" baseProfile="tiny" xmlns="http://www.w3.org/2000/svg" xmlns:xlink="http://www.w3.org/1999/xlink" x="0px" y="0px" viewBox="0 0 512 512" xml:space="preserve" width="40">
                                        <circle fill="#FFFFFF" cx="256.1" cy="244.7" r="202.9" />
                                    <path fill="#1F96F3" d="M235,0c14,0,28,0,42,0c1.3,0.3,2.5,0.6,3.8,0.8c11.7,1.7,23.5,2.8,35,5.3c97.2,20.6,176,103,192.2,200.8
	c1.5,9.3,2.6,18.7,3.9,28.1c0,7,0,14,0,21c-0.9,7.1-1.7,14.2-2.9,21.2c-15.7,90.3-65.1,155.2-148.6,192.6
	c-63,28.2-128,27.4-192.9,5.6c-4.8-1.6-8.2-1.3-12.3,1.4c-18.6,11.9-37.5,23.5-56.2,35.2c-2,0-4,0-6,0c-5.9-2.9-7.9-7.8-7.8-14.2
	c0.2-21.6,0-43.3,0.2-64.9c0-3.7-1.3-6-4-8.4C40,387.4,14.1,341.6,4,287c-1.7-9.3-2.7-18.7-4-28c0-8,0-16,0-24
	c0.3-1.4,0.7-2.9,0.8-4.3c2.8-36.2,12.8-70.4,31-101.9C71.2,60.7,129.6,19,206.9,4C216.2,2.2,225.6,1.3,235,0z M224,169.4
	c-3.6,2.5-7,4.1-9.6,6.7c-41.3,41.2-82.5,82.4-123.8,123.7c-1.2,1.2-2.4,2.3-3.3,3.7c-2.6,3.8-2.4,9,0.6,12.5
	c3.1,3.6,7,4.9,11.7,3.3c1.7-0.6,3.3-1.5,4.9-2.4c34.5-18.8,69-37.6,103.4-56.5c3.1-1.7,5.1-1.7,7.8,0.7
	c20.8,18,41.7,35.8,62.5,53.7c8.2,7.1,12.4,6.9,20.1-0.7c40.9-40.9,81.8-81.8,122.7-122.7c1.3-1.3,2.6-2.6,3.7-4.1
	c2.8-3.9,2.6-8.9-0.3-12.6c-2.8-3.7-7.7-5.1-12.1-3.5c-1.7,0.6-3.3,1.6-4.9,2.5c-33.8,18.4-67.6,36.7-101.2,55.3
	c-4.7,2.6-7.5,2.4-11.5-1.1c-20.2-17.7-40.6-35.1-61-52.5C231,173.4,227.7,171.8,224,169.4z" />
                                    </svg>