<svg version="1.2" baseProfile="tiny" xmlns="http://www.w3.org/2000/svg" xmlns:xlink="http://www.w3.org/1999/xlink" x="0px" y="0px" viewBox="0 0 125.9 125.9" xml:space="preserve" class="my-0 mx-0" width="28">
                                <g>
                                        <path fill="#FFFFFF" d="M81.8,40.9c-2.1,0-3.7,2.1-3.7,3.7s2.1,3.7,3.7,3.7c2.1,0,3.7-2.1,3.7-3.7S83.9,40.9,81.8,40.9z" />
                                    <path fill="#FFFFFF" d="M77.6,27.8H48.2c-11.6,0-20.5,8.9-20.5,20.5v29.4c0,11.6,9.5,20.5,20.5,20.5h29.4
		c11.6,0,20.5-9.5,20.5-20.5V48.2C98.1,36.7,89.2,27.8,77.6,27.8z M92.9,48.2l-0.5,29.4l0,0c0,8.4-6.8,15.2-15.2,15.2H48.2
		C39.8,92.9,33,86,33,77.6V48.2C33,39.8,39.8,33,48.2,33h29.4C86,33,92.9,39.8,92.9,48.2z" />
                                    <path fill="#FFFFFF" d="M63.5,45.1h-0.5c-10,0-17.9,8.4-17.9,17.9s8.4,17.9,17.9,17.9h0.5c9.5,0,17.3-7.9,17.3-17.9
		S72.9,45.1,63.5,45.1z M62.9,50.9c6.3,0,12.1,5.3,12.1,12.1C75,69.2,69.8,75,62.9,75c-6.3,0-12.1-5.3-12.1-12.1
		C50.9,56.6,56.6,50.9,62.9,50.9z" />
                                    </g>
                                </svg>