<?xml version="1.0" encoding="utf-8"?>
<!-- Generator: Adobe Illustrator 23.0.1, SVG Export Plug-In . SVG Version: 6.00 Build 0)  -->
<svg version="1.1" id="Слой_1" focusable="false"
	 xmlns="http://www.w3.org/2000/svg" xmlns:xlink="http://www.w3.org/1999/xlink" x="0px" y="0px" viewBox="0 0 524 536.7"
	 style="enable-background:new 0 0 524 536.7;" xml:space="preserve">
<g>
	<path d="M372.9,306.6c0.9,5.3,2.1,10.2,2.5,15.2c1.1,12.8-3.8,23.1-14.1,30.8c-4.1,3.1-8.3,6-12.5,8.9c-0.2,0.1-0.5,0.2-1.1,0.5
		c3.2,1.5,5.9,2.7,8.6,3.9c9.7,4.4,14.3,14,11.5,24.3c-4.1,15.5-11.6,29-23.1,40.3c-4.7,4.6-9.9,8.6-15.6,12.1
		c-11,6.7-22.9,10.6-35.6,12.2c-2.5,0.3-5.1,0.4-7.6,0.4c-8.8,0-17.5,0-26.3,0c-0.3,0-0.6,0.1-1,0.1c0,19.4,0,38.7,0,58.3
		c0.8,0,1.5,0,2.2,0c49.8,0,99.6,0,149.4,0c3.3,0,6.7,0,9.9,0.8c4.8,1.2,7.8,6.7,7,11.7c-0.9,5.1-5.3,9-10.3,9
		c-25.6,0-51.3,0-76.9,0c-18.3,0-36.7,0-55,0c-38.9,0-77.7,0-116.6,0c-16.7,0-33.5,0-50.2,0c-35.6,0-71.3,0-106.9,0
		c-6.5,0-11.1-4.5-11.1-10.8c0-6.1,4.7-10.7,11.1-10.7c9.9,0,19.8,0,29.7,0c1.2,0,1.8-0.3,2.4-1.5c6.8-14.9,11.6-30.4,15.2-46.3
		c3.5-15.5,5.3-31.2,5.6-47.2c0.5-22.7-2-45-7.3-67c-6.1-25.2-15.5-49.1-27.9-71.9c-5.6-10.3-9.4-21.4-12.6-32.8
		c-3.3-11.6-5.9-23.4-6.5-35.4c-0.4-8.9-0.4-17.9-0.1-26.8c0.3-11.5,1.7-23,3.8-34.4c5.2-28.1,15.3-54.1,32.6-77
		c9.9-13.1,21.6-24.3,35-33.9c15.8-11.3,33-19.7,51.4-26c14.6-5,29.5-8.9,44.9-10.8c17.6-2.3,35.1-1.7,52.5,1.5
		c22.7,4.2,43.8,12.5,63.3,24.8c20.3,12.7,37.5,28.7,51.7,47.9c14.7,19.8,25.3,41.7,31.8,65.6c4.2,15.4,6.5,31.1,6.4,47
		c-0.1,14.6,3.6,28,10.6,40.7c6.9,12.5,13.3,25.3,20,38c2.3,4.2,4.2,8.5,4.4,13.4c0.5,12.3-8.8,23.6-21.1,24.8
		c-7.2,0.7-14.6,0.3-21.8,0.4C374.5,306.6,373.7,306.6,372.9,306.6z M346.9,385.3c-0.6-0.3-1-0.5-1.4-0.7c-7.7-3.4-15.3-6.8-23-10.2
		c-3.8-1.7-6.2-4.5-6.7-8.7c-0.5-4.3,1.1-7.8,4.7-10.4c9.5-6.8,19-13.5,28.4-20.4c4.3-3.1,5.9-7.5,5-12.7c-1.4-8.1-3-16.2-4.6-24.4
		c-1.3-7.1,3.5-12.9,10.7-13c10.1,0,20.1,0,30.2,0c1.1,0,2.2,0,3.3-0.1c2.6-0.2,3.7-2,2.5-4.4c-7.2-13.8-14.3-27.6-21.8-41.3
		c-8.3-15.3-12.6-31.5-12.6-48.9c0-17.4-2.8-34.4-8.3-50.9c-7.5-22.6-18.9-42.9-34.6-60.9c-13.2-15.1-28.7-27.5-46.3-37
		c-15.4-8.3-31.8-14-49.1-16.8c-17.1-2.8-34.1-2.8-51,0.4c-17.8,3.3-35,8.5-51.4,16c-15.4,7.1-29.5,16-41.8,27.6
		c-18.2,17.1-30.6,37.9-38.3,61.6c-6.4,19.8-9.1,40.1-9.6,60.9c-0.4,14.7,0.7,29.2,4.4,43.5c3.4,13.1,7.7,25.9,14.1,37.8
		c6,11.1,11.2,22.5,15.8,34.3c5.5,14.1,10.2,28.6,13.2,43.5c2.4,11.7,4.4,23.5,5.7,35.4c1.8,16.3,2.2,32.6,0.4,49
		c-0.9,8.1-1.7,16.2-3,24.2c-2.4,15.1-6.5,29.8-11.6,44.1c-1.2,3.5-2.6,6.9-3.9,10.4c57,0,113.9,0,170.8,0c0-19.5,0-38.8,0-58.1
		c-0.3-0.1-0.4-0.1-0.6-0.1c-14.6,0-29.1-0.1-43.7-0.1c-8.5,0-17,0.1-25.6,0.1c-3.1,0-5.6-1.3-7.6-3.6c-3-3.4-3.5-7.4-1.8-11.4
		c1.8-4.2,5.2-6.4,9.9-6.4c17.8,0,35.7,0,53.5,0c21.3,0,42.5,0.1,63.8,0c10.4,0,20.3-2.5,29.5-7.4
		C331,417.3,341.7,403.6,346.9,385.3z"/>
	<path d="M522.4,371.8c-0.1,21-4.8,40.7-15.1,59c-5.6,9.9-12.8,18.6-21.6,25.9c-4.8,4-11.4,3.2-15.3-1.6c-3.7-4.5-3-11.2,1.6-15.1
		c12.4-10.5,20.1-23.9,24.7-39.2c3.8-12.7,5-25.7,3.7-38.8c-1.9-18.2-8-34.7-20.5-48.4c-3.9-4.3-3.4-11.1,1-15.2
		c4.1-3.7,11-3.5,14.9,0.7c7.6,8,13.3,17.1,17.6,27.2c3.5,8.3,6.2,16.8,7.3,25.7c0.8,6.5,1.5,13.1,2.2,19.6
		C522.7,371.7,522.5,371.7,522.4,371.8z"/>
	<path d="M467.4,370.7c-0.1,15.5-3.6,30-11.5,43.4c-3.5,5.8-7.7,10.9-12.5,15.6c-4.3,4.2-11.3,4.1-15.5-0.2c-4.2-4.3-4-11,0.4-15.3
		c10.7-10.1,15.8-22.7,17.3-37c1.3-13.1-1-25.4-7.4-37c-1.2-2.2-2.7-4.3-4.4-6.1c-2.8-3.1-3.3-8.3-1.4-12c3.5-7.1,13.4-7.8,18.6-1.1
		c11,14.2,16.1,30.2,16.4,47.9C467.4,369.5,467.4,370.1,467.4,370.7z"/>
	<path d="M77.2,195.2c0,2.9-0.1,5.8,0,8.7c0.3,6.4-4.2,11.7-10.1,12c-6.4,0.3-11.4-4.2-11.5-10.9c-0.3-15.5,0.8-30.8,3.9-46
		c3.2-15.3,8.3-29.9,16.2-43.5c10-17.2,23.4-31.1,40-42c17.4-11.4,36.6-18.4,56.8-23c11.7-2.6,23.5-4.1,35.5-3.2
		c7.9,0.5,15.7,1.8,23.4,3.2c5.8,1.1,9.2,6.7,8.2,12.2c-1.1,5.7-6.2,9.6-11.8,8.9c-3.4-0.5-6.8-1.3-10.2-1.8
		c-8.7-1.2-17.5-1.5-26.2-0.5c-17.9,2.1-34.9,7.1-51.1,14.9c-14.8,7.1-27.7,16.9-37.9,29.8c-9.1,11.4-15.2,24.3-19.2,38.3
		c-2.7,9.3-4.2,18.8-5.2,28.3c-0.5,4.8-0.5,9.7-0.8,14.6C77.1,195.2,77.1,195.2,77.2,195.2z"/>
</g>
</svg>
