<svg version="1.1" xmlns="http://www.w3.org/2000/svg" xmlns:xlink="http://www.w3.org/1999/xlink" x="0px" y="0px" viewBox="0 0 35 35" xml:space="preserve">
    <path fill="#cccccc" d="M11.6,29.1c-0.8,0-1.6,0-2.3,0c-1.4,0-2.7,0-4.1-0.1c-1.7-0.1-3.2-1.7-3.3-3.4c0-0.2,0-0.4,0-0.7c0-5.7,0-11.5,0-17.2
	c0-2,1.2-3.5,3-4C5.2,3.7,5.6,3.7,6,3.7c7.7,0,15.4,0,23,0c2.5,0,4.1,1.7,4.1,4.2c0,5.7,0,11.5,0,17.2c0,2-1.2,3.5-3,3.9
	c-0.4,0.1-0.8,0.1-1.2,0.1c-2.6,0-5.3,0-7.9,0c-0.2,0-0.5,0.1-0.6,0.2c-2.4,1.8-4.7,3.5-7,5.3c-0.2,0.2-0.6,0.3-0.8,0.3
	c-0.6,0-0.9-0.4-0.9-1c0-1.4,0-2.9,0-4.3C11.6,29.5,11.6,29.3,11.6,29.1z M14.5,30.1c0.2-0.1,0.3-0.2,0.4-0.2c1.3-1,2.7-2,4-3
	c0.6-0.5,1.3-0.7,2.2-0.7c2.6,0,5.3,0,7.9,0c1,0,1.3-0.3,1.3-1.3c0-5.7,0-11.4,0-17.1c0-0.9-0.3-1.2-1.3-1.2c-7.7,0-15.3,0-23,0
	c-0.9,0-1.3,0.3-1.3,1.3c0,5.7,0,11.4,0,17.1c0,0.9,0.3,1.3,1.3,1.3c1.8,0,3.5,0,5.3,0c2.1,0,3.3,1.2,3.3,3.2
	C14.5,29.7,14.5,29.8,14.5,30.1z" />
</svg>
