<svg version="1.1" xmlns="http://www.w3.org/2000/svg" xmlns:xlink="http://www.w3.org/1999/xlink" x="0px" y="0px" viewBox="0 0 35 35" xml:space="preserve">
                                        <g>
                                            <path fill="#f01d00" d="M7.3,34.8c-1,0-1.9-0.3-2.8-0.9c-1.2-0.9-1.9-2.2-2-3.7c0-0.1,0-0.2,0-0.3v-7.1V5.3c0-2.7,2.2-5.1,5-5.1
		c0.2,0,0.4,0,0.6,0.1C9.1,0.5,9.8,1,10.6,1.5c0.6,0.3,1.1,0.7,1.7,1c1.1,0.7,2.2,1.3,3.3,2c1.1,0.7,2.2,1.3,3.3,2
		c1.1,0.7,2.2,1.4,3.3,2c1.1,0.7,2.2,1.4,3.3,2c1.1,0.7,2.2,1.4,3.3,2c0.3,0.2,0.6,0.3,0.9,0.5c1.8,1.1,2.9,3.1,2.6,5.2
		c-0.3,1.9-1.4,2.9-2.4,3.4L26.4,24c-5.3,3.2-10.5,6.4-15.8,9.7c-0.7,0.4-1.3,0.8-2.2,1C8.1,34.8,7.7,34.8,7.3,34.8z M7.3,3.2
		c-0.1,0-0.2,0-0.2,0C6.7,3.4,6.3,3.6,6,4C5.7,4.3,5.5,4.8,5.5,5.3c0,0,0,17.5,0,17.5V30c0,0.6,0.3,1.1,0.8,1.5
		C6.5,31.7,7,32,7.7,31.8c0.4-0.1,0.8-0.4,1.3-0.7c5.3-3.3,10.6-6.5,15.9-9.7l3.6-2.2c0.5-0.3,0.8-0.5,0.9-0.8c0.5-1,0.2-2-0.8-2.6
		c-1.1-0.7-2.2-1.3-3.3-2c-1.1-0.7-2.2-1.3-3.3-2c-1.1-0.7-2.2-1.3-3.3-2c-1.1-0.7-2.2-1.4-3.3-2c-1.1-0.7-2.2-1.4-3.3-2
		c-1.1-0.7-2.2-1.3-3.3-2C8.2,3.4,7.8,3.2,7.3,3.2z" />
                                        </g>
                                    </svg>