<svg xmlns="http://www.w3.org/2000/svg" viewBox="0 0 40.99 31.49"><defs><style>.cls-1{fill:#cdd2dc;}</style></defs><title>Ресурс 5</title><g id="Слой_2" data-name="Слой 2"><g id="Слой_1-2" data-name="Слой 1"><path class="cls-1" d="M9.49,31.49a9.3,9.3,0,0,1-6.82-2.83,8.93,8.93,0,0,1-2-3.14,11.23,11.23,0,0,1-.69-4,18.55,18.55,0,0,1,1.1-6.32,25.56,25.56,0,0,1,3.17-6A31.09,31.09,0,0,1,15.9,0l1.83,4.4-.44.38-.44.37a10.82,10.82,0,0,0-1.57,1.23,16,16,0,0,0-2.39,3.11A9.22,9.22,0,0,0,12,11.31a10,10,0,0,0-.47,1.95,7.85,7.85,0,0,1,5.15,3,9.66,9.66,0,0,1,1.76,5.82A9.27,9.27,0,0,1,16,28.66,8.64,8.64,0,0,1,9.49,31.49Zm22.51,0a9.49,9.49,0,0,1-3.81-.75,9.33,9.33,0,0,1-3-2.08,8.93,8.93,0,0,1-2-3.14,11,11,0,0,1-.7-4A20.72,20.72,0,0,1,26.78,9.18,29.8,29.8,0,0,1,38.41,0l1.82,4.4-.44.38c-.25.21-.38.33-.38.37a12.45,12.45,0,0,0-1.6,1.26,16,16,0,0,0-2.36,3.08,19.74,19.74,0,0,0-.88,1.79,7.38,7.38,0,0,0-.5,2,8.7,8.7,0,0,1,5.06,3.18A9.06,9.06,0,0,1,41,22.13a9.25,9.25,0,0,1-2.58,6.53A8.43,8.43,0,0,1,32,31.49Z"/></g></g></svg>