<?xml version="1.0" encoding="utf-8"?>
<!-- Generator: Adobe Illustrator 23.0.1, SVG Export Plug-In . SVG Version: 6.00 Build 0)  -->
<svg version="1.1" id="Слой_1" xmlns="http://www.w3.org/2000/svg" xmlns:xlink="http://www.w3.org/1999/xlink" x="0px" y="0px"
	 viewBox="0 0 260 260" style="enable-background:new 0 0 260 260;" xml:space="preserve">
<g>
	<path d="M9.5,160c-8.6-0.6-8.6-0.6-8.6-9.1c0-3.6,0-7.1,0-10.8c0-4.8,1.3-6.1,6-6.1c22.6,0,45.2,0,68,0c1,0,2.1,0,3.3,0
		c0-4.4,0-8.4,0-12.9c-2.5,0-5.1,0-7.7,0c-3.6,0-5.2-1.6-5.1-5.1c0.1-11.8-1.6-8.7,7.7-15.4c16.8-12.1,33.6-24.1,50.4-36.1
		c1.5-1,2.1-2.2,2.1-3.9c-0.1-17.7,0-35.5,0-53.2c0-0.8,0-1.6,0-2.4c0.2-2.5,2.1-4.2,4.4-4.1c2.2,0,4,1.7,4.1,4.1
		c0.1,1.4,0,2.8,0,4.5c1.3,0,2.2,0,3.2,0c16.8,0,33.5,0,50.2,0c0.7,0,1.4,0,2.2,0c2.1,0,3.7,0.9,4.4,2.9c0.8,2.1,0,3.7-1.6,4.9
		c-4.7,3.8-9.5,7.6-14.2,11.4c-0.8,0.7-1.6,1.4-2.6,2.2c5.3,4.2,10.4,8.4,15.6,12.5c0.6,0.5,1.5,0.9,1.8,1.6
		c0.6,1.4,1.4,3.2,0.9,4.4c-0.6,1.3-2.3,2.3-3.7,2.9c-0.9,0.5-2.3,0.1-3.4,0.1c-16.4,0-33,0-49.4,0c-0.9,0-2,0-3.1,0
		c0,3.3-0.1,6.4,0.1,9.5c0,0.8,0.9,1.8,1.7,2.4c18.1,13,36.2,26,54.4,38.8c2.9,2.1,4.4,4.2,4,7.8c-0.2,1.8,0,3.8-0.1,5.6
		c-0.1,2.9-1.7,4.5-4.6,4.6c-2.6,0.1-5.3,0-8.2,0c0,4.4,0,8.5,0,12.9c1.1,0,2.2,0,3.2,0c22.6,0,45.2,0,68,0c4.7,0,6,1.3,6,6.1
		c0,4.6,0,9.2,0,13.7c0,4.7-1.3,6-6.1,6c-0.7,0-1.4,0-2.5,0c0,1.1,0,2.2,0,3.2c0,29.9,0,59.6,0,89.4c0,4.9-1.3,6.2-6.2,6.2
		c-76.1,0-152.1,0-228.3,0c-4.9,0-6.2-1.3-6.2-6.2c0-29.7,0-59.5,0-89.1C9.5,162.3,9.5,161.1,9.5,160z M73.3,112.6
		c3.1,0,5.2,0,7.1,0c5.3,0,6.4,1.1,6.4,6.4c0,42.6,0,85.2,0,127.8c0,1,0,2.1,0,3c7.3,0,14.4,0,21.5,0c0-11.4-0.1-22.4,0.1-33.5
		c0.1-3.1,0.7-6.4,1.8-9.3c3.9-9.3,13.8-14.2,23.8-12.3c9.8,2,17.1,10.4,17.2,20.6c0.1,10.7,0,21.2,0,31.9c0,0.9,0,1.8,0,2.8
		c7.3,0,14.2,0,21.5,0c0-1,0-1.8,0-2.8c0-8.3,0-16.4,0-24.7c0-34.7,0-69.5,0-104.1c0-4.4,1.4-5.7,5.7-5.7c2.3,0,4.6,0,7.7,0
		c-0.9-1.4-1.3-2.5-2-3.1c-17.7-12.6-35.4-25.3-53-37.9c-0.6-0.5-2.1-0.5-2.6,0c-17.8,12.6-35.6,25.3-53.3,38
		C74.5,110.2,74.2,111.2,73.3,112.6z M18.3,249.8c20.1,0,40,0,59.8,0c0-30.1,0-60.1,0-89.9c-20.1,0-39.8,0-59.8,0
		C18.3,190,18.3,219.8,18.3,249.8z M181.5,159.9c0,30.1,0,60.1,0,89.9c20.1,0,40,0,59.8,0c0-30.1,0-59.9,0-89.9
		C221.4,159.9,201.5,159.9,181.5,159.9z M142.7,249.9c0-11.1,0-22.2,0-33.2c0-8.3-5.4-14-13-14c-7.5,0-12.7,5.9-12.9,13.9
		c0,10.2,0,20.6,0,30.8c0,0.8,0.1,1.6,0.1,2.4C125.6,249.9,133.9,249.9,142.7,249.9z M134.2,43.7c14.4,0,28.6,0,43.3,0
		c-3.8-3-7-5.6-10.3-8.4c-4.1-3.3-4.1-5.6,0.1-9c3.3-2.6,6.5-5.3,10.2-8.3c-14.8,0-28.9,0-43.3,0C134.2,26.7,134.2,35.1,134.2,43.7z
		 M78.1,151.1c0-3,0-5.6,0-8.3c-22.9,0-45.6,0-68.4,0c0,2.9,0,5.6,0,8.3C32.6,151.1,55.2,151.1,78.1,151.1z M250,142.8
		c-23,0-45.7,0-68.6,0c0,2.9,0,5.5,0,8.3c22.9,0,45.6,0,68.6,0C250,148.3,250,145.6,250,142.8z"/>
	<path d="M130.1,95.3c18.7,0,34.1,15.6,34.1,34.3c0,19.1-15.5,34.4-34.4,34.4c-19.1-0.1-34.3-15.6-34.2-34.7
		C95.5,110.6,111,95.3,130.1,95.3z M104,129.7c0,14.2,11.5,25.8,25.7,25.8s25.8-11.5,25.8-25.7c0.1-14.1-11.5-25.8-25.7-25.8
		S104,115.4,104,129.7z"/>
	<path d="M134.1,123.5c0,0.2,0,0.6,0,0.8c1.5,6.5-2.5,10.4-7,14.2c-1.8,1.5-4.2,1.5-5.9-0.1c-1.7-1.6-2.1-4.6-0.1-6
		c4.6-3.2,4.6-7.6,4.2-12.3c-0.1-0.9,0-1.8,0-2.6c0.1-3,1.7-4.8,4.2-4.8c2.6,0,4.4,1.8,4.4,4.9C134.1,119.6,134.1,121.5,134.1,123.5
		z"/>
</g>
</svg>
