<svg version="1.2" baseProfile="tiny" xmlns="http://www.w3.org/2000/svg" xmlns:xlink="http://www.w3.org/1999/xlink" x="0px" y="0px" viewBox="0 0 42.1 42.1" xml:space="preserve" height="18.5" width="18.5">
                            <path fill="#FFFFFF" d="M41.3,39.5c-1.9-2-4.4-4.5-6.8-7c-1.9-1.9-3.7-3.8-5.2-5.3c-0.1-0.1-0.1-0.2-0.2-0.2c2.7-3.1,4-7.3,3.7-11.7
	c-0.4-4.6-2.5-8.8-5.9-11.6C20.4-1.5,11.1-1.2,5.3,4.5c-5.9,5.7-6.7,15.2-1.8,21.7c2.6,3.4,5.9,5.5,9.8,6.3c5,0.9,9.6-0.2,13.7-3.4
	c0.1,0.1,0.2,0.2,0.3,0.2c1.7,1.7,3.8,3.8,5.9,5.9c2.2,2.2,4.3,4.4,6.1,6.2l0.1,0.1c0.1,0.1,0.3,0.3,0.4,0.4
	c0.3,0.2,0.6,0.3,0.9,0.3c0.1,0,0.3,0,0.4-0.1c0.4-0.1,0.8-0.5,1-0.9C42.2,40.3,41.6,39.8,41.3,39.5z M30,16.5c0,3.6-1.5,7-4,9.5
	s-5.9,3.8-9.5,3.8c-7.4,0-13.4-6.1-13.4-13.5c0-3.6,1.4-7,4-9.5c2.5-2.5,5.9-3.9,9.4-3.9h0.1C24.2,3,30,9,30,16.5z" />
                        </svg>