<svg xmlns="http://www.w3.org/2000/svg" viewBox="0 0 181.74 158.36"><defs><style>.cls-1{fill:#FF3000;}.cls-2{fill:#fff;}</style></defs><title>Ресурс 4</title><g id="Слой_2" data-name="Слой 2"><g id="Слой_1-2" data-name="Слой 1"><path class="cls-1" d="M87.69,1.83.5,152.86a3.66,3.66,0,0,0,3.17,5.5h174.4a3.66,3.66,0,0,0,3.17-5.5L94,1.83A3.67,3.67,0,0,0,87.69,1.83Z"/><path class="cls-2" d="M80.5,129.7q0-5.32,2.92-7.48a11.55,11.55,0,0,1,7-2.15,11.41,11.41,0,0,1,6.94,2.15c1.94,1.44,2.92,3.93,2.92,7.48s-1,5.85-2.92,7.36a11,11,0,0,1-6.94,2.27,11.13,11.13,0,0,1-7-2.27Q80.5,134.8,80.5,129.7Zm16.94-19.37H83.62L80.73,55h19.6Z"/></g></g></svg>