<svg version="1.2" baseProfile="tiny" xmlns="http://www.w3.org/2000/svg" xmlns:xlink="http://www.w3.org/1999/xlink" x="0px" y="0px" viewBox="0 0 24 24" xml:space="preserve" width="40">
                                        <path fill="#059BE5" d="M0.5,12C0.5,5.6,5.6,0.5,12,0.5S23.5,5.6,23.5,12S18.4,23.5,12,23.5S0.5,18.4,0.5,12z" />
                                    <path fill="#FFFFFF" d="M16.8,6.6l-12,4.7c0,0-0.5,0.2-0.5,0.6c0,0.3,0.5,0.5,0.5,0.5l3,1l7.3-4.6c0,0,0.4-0.3,0.4,0
	c0,0,0,0.1-0.2,0.3l-5.7,5.2l0,0c0,0-0.5,2-0.6,2.6c0,0.2-0.1,0.4,0,0.6c0.1,0.1,0.2,0.2,0.4,0.1c0.2-0.1,0.4-0.3,0.5-0.4
	c0.4-0.3,0.7-0.7,1.1-1c0,0,0.3-0.3,0.5-0.4l3,2.3c0.9,0.3,1.2-0.4,1.2-0.4l2.1-10.8C17.8,6.2,16.8,6.6,16.8,6.6z" />
                                    <path fill="#059BE5" d="M11.5,15.8" />
                                    </svg>