
                                <svg version="1.1" baseProfile="tiny" xmlns="http://www.w3.org/2000/svg" xmlns:xlink="http://www.w3.org/1999/xlink" x="0px" y="0px" viewBox="0 0 275.5 305.9" xml:space="preserve" width="40">
                                        <circle fill="#FFFFFF" cx="134.7" cy="134.3" r="114.3" />
                                    <path fill="#665CAC" d="M137.8,0.2c11.5,0,23-0.2,34.5,0c26.2,0.6,48.9,10.2,68.2,27.7c19.2,17.4,30.4,39.3,34.1,64.9
	c0.6,4.1,0.8,8.2,0.8,12.3c0.1,16.1,0.1,32.2,0,48.4c-0.1,52.2-38.4,96.8-90,105c-5.5,0.9-11.2,1.3-16.7,1.4
	c-16.7,0.2-33.5,0.1-50.2,0c-3.2,0-5.3,1-7.5,3.2c-13.3,13.4-26.7,26.7-40,40.1c-1.9,1.9-3.8,3.4-6.5,2.4c-2.9-1.1-2.9-3.7-2.9-6.3
	c0-15.1-0.1-30.2,0.1-45.4c0-2.9-0.9-4.4-3.5-5.8C25.7,230.7,6.9,203.5,1,167.2c-0.7-4.2-0.8-8.4-0.8-12.7C0,138.7,0,122.8,0,106.9
	C0.1,56,36,12,85.9,2.1c7.5-1.5,15.3-1.7,23.1-1.9C118.5-0.2,128.1,0.1,137.8,0.2C137.8,0.1,137.8,0.2,137.8,0.2z M178.7,222.4
	c3.5,0.2,9.2-1,13.6-5c5.9-5.4,11.7-10.9,17.1-16.8c5.4-5.9,5.9-15.1,0.8-20.6c-7.9-8.7-16-17.2-24.7-25.1
	c-8.1-7.4-20.1-4.1-24.5,5.9c-3.8,8.8-11.7,12.5-20.5,8.7c-17.3-7.5-30-20.1-37.2-37.7c-4-9.8-0.8-16.6,9-20.7
	c10.6-4.5,13.6-16.8,5.8-25.3c-7.3-8-15-15.7-22.8-23.3c-6.3-6-16.1-6.1-22.1-0.5c-5.3,4.9-10.4,10-15.6,15.2
	c-3.5,3.5-5.2,7.8-5.9,12.6c-1.4,10,0.9,19.5,4.9,28.4c19.7,43.7,51.4,75.9,94,97.5C158.7,219.8,167.2,222.3,178.7,222.4z
	 M152.8,52.7c26.8-0.2,51,19.2,57.7,44.9c2.5,9.5,2.7,18.9,0.7,28.5c-0.9,4.2,0.7,7.1,4.1,8c3.3,0.8,6.3-1.2,6.8-5.6
	c0.8-8.1,2.3-16.6,1.1-24.5c-4.7-30.4-22.1-50.6-51.5-60c-8.1-2.6-16.6-3.8-25.1-2.6c-4,0.5-5.7,2.8-5.3,6.3c0.3,3,2.7,4.9,6.4,5
	C149.3,52.7,151.1,52.7,152.8,52.7z M152.2,61.7c-2,0.1-4,0.1-6,0.3c-3.5,0.4-5.6,3.1-5,6.6c0.7,3.7,3.3,4.7,6.7,4.5
	c10.2-0.6,19.6,1.6,27.8,7.9c12.1,9.2,17.1,21.7,16.4,36.7c-0.2,3.8,1.7,6.1,4.8,6.4s6-2,6.2-5.6c0.2-3.9,0.4-7.8-0.2-11.6
	C198.7,80.1,179,62.7,152.2,61.7z M153.5,82.2c-4.6-0.1-7.1,1.6-7.3,5.1c-0.3,3.6,1.8,5.4,6.8,6c8.4,1.1,14.4,5.3,17.4,13.3
	c0.8,2.2,1,4.6,1.4,6.9c0.7,3.7,2.8,5.5,6,5.2c3-0.3,5.2-2.8,5.1-6.3C182.3,95.3,168.6,82.9,153.5,82.2z" />
                                    </svg>