<svg version="1.2" baseProfile="tiny" xmlns="http://www.w3.org/2000/svg" xmlns:xlink="http://www.w3.org/1999/xlink" x="0px" y="0px" viewBox="0 0 46.2 46.2" xml:space="preserve" width="30">
                                                        <path fill="#2CB742" d="M46.2,22c0,1-0.1,2.1-0.2,3.1c-0.1,1-0.2,2-0.5,3c-1.2,5.1-4,9.4-8.2,12.6c-5.8,4.5-12.6,5.8-20.2,4
	c-1.4-0.3-2.7-1-4-1.6c-0.2-0.1-0.5-0.1-0.8-0.1c-3.3,0.8-6.5,1.7-9.7,2.6C1.8,45.7,1,46,0,46.2c0.1-0.2,0.1-0.4,0.2-0.5
	c1.2-3.6,2.4-7.2,3.6-10.8c0.1-0.4,0.1-0.8-0.1-1.2c-1.9-3.4-2.8-7-2.9-10.9c0-1.5,0.1-2.9,0.4-4.4C3,9,10.4,1.7,20,0.3
	c4.7-0.7,9.3-0.1,13.9,2.3c3,1.5,5.7,3.7,7.7,6.4C44.5,12.8,46,17.1,46.2,22L46.2,22z M31.2,36.8c0.9,0,1.9-0.3,2.9-0.8
	c1.5-0.8,2.6-2.1,3.8-3.3c0.2-0.2,0.3-0.4,0.4-0.7c0.3-1-0.1-1.8-0.7-2.5c-1.2-1.4-2.6-2.4-4.1-3.3c-0.3-0.2-0.7-0.4-1.1-0.5
	c-0.7-0.2-1.2,0-1.7,0.6c-0.4,0.6-0.9,1.1-1.4,1.6c-1.2,1.1-2.8,1.2-4,0.1c-1-0.9-1.9-1.9-2.9-2.9c-1.4-1.4-2.7-2.7-4-4.1
	c-1.2-1.3-1.1-3,0.2-4.2c0.5-0.4,1-0.9,1.5-1.3c0.5-0.4,0.7-0.9,0.5-1.6c-0.1-0.3-0.2-0.7-0.4-1c-0.6-0.9-1.2-1.9-2-2.8
	c-0.6-0.7-1.3-1.4-2.1-2c-0.9-0.6-1.9-0.5-2.7,0.2c-0.8,0.7-1.5,1.4-2.2,2.2c-1.9,2.2-2.2,4.7-1.2,7.4c0.8,2,2,3.7,3.5,5.2
	c3,3.1,6.1,6.2,9.2,9.2c0.9,0.9,1.8,1.6,2.8,2.3C27.1,36,28.9,36.8,31.2,36.8z" />
                                                    </svg>