<?xml version="1.0" encoding="utf-8"?>
<!-- Generator: Adobe Illustrator 23.0.1, SVG Export Plug-In . SVG Version: 6.00 Build 0)  -->
<svg version="1.1" id="Слой_1" xmlns="http://www.w3.org/2000/svg" xmlns:xlink="http://www.w3.org/1999/xlink" x="0px" y="0px"
	 viewBox="0 0 109 129.6" style="enable-background:new 0 0 109 129.6;" xml:space="preserve">
<style type="text/css">
	.st0{fill:#FF3000;}
	.st1{enable-background:new    ;}
</style>
<title>Ресурс 10</title>
<path class="st0" d="M52.1,0L51,0.1c-5.2,0.5-10.2,2.1-14.8,4.6c-10.1,5.8-16.9,16-18.2,27.6c-0.3,3.1-0.3,6.2,0.1,9.3
	c0.9,7,3.8,13.5,8.3,18.9c1.4,1.6,2.9,3,4.4,4.4c5.9,4.9,13.2,7.9,20.8,8.5c4.9,0.4,9.9-0.1,14.6-1.6C73.4,69.5,79.6,65,84.1,59
	c4.1-5.5,6.5-12,7.1-18.8c0.1-2.2,0.1-4.5,0-6.7c-0.6-6.6-2.9-12.8-6.7-18.2C79,7.4,70.5,2.1,61,0.5C59,0.1,57,0,55,0
	C53.5,0,52.2,0,52.1,0z M52.4,5.7c0.5,0.2,0.5-0.3,0.5,7.1c0,5.6,0,6.6-0.1,6.6c-1.7-0.1-3.3-0.3-4.9-0.6c-1.4-0.2-2.8-0.7-4.2-1.2
	c0.2-0.8,0.5-1.6,0.9-2.3c1.2-2.5,2.6-4.8,4.2-7.1c1.3-2,1.5-2.1,2.5-2.4C51.6,5.6,52,5.6,52.4,5.7L52.4,5.7z M59.1,5.8
	c0.9,0.6,1.7,1.5,2.2,2.4c0.9,1.4,2.2,3.4,2.9,4.9s1.7,3.4,1.9,3.9l0.1,0.4L66,17.5c-1.7,0.6-3.4,1-5.1,1.4
	c-1.3,0.3-2.7,0.4-4.1,0.5c0,0,0-3,0-6.6c0-7.3,0-6.9,0.5-7C57.9,5.7,58.5,5.7,59.1,5.8L59.1,5.8z M43,8c-0.1,0.2-0.3,0.6-0.5,0.9
	c-1.1,1.9-2,3.8-2.9,5.8c-0.4,1-0.5,1.1-0.6,1.1c-1.4-0.6-2.7-1.2-4-1.9c-1-0.6-1-0.6-0.5-1.1c2-1.8,4.2-3.2,6.6-4.3
	c0.6-0.3,1.8-0.8,2-0.8S43.1,7.8,43,8z M67.3,8c2.9,1,5.5,2.5,7.8,4.5l0.6,0.5l-0.2,0.2c-1.7,1.1-3.5,2-5.4,2.7
	c-0.1-0.2-0.2-0.3-0.3-0.5c-0.9-2.1-1.8-4.1-2.9-6.1c-0.4-0.7-0.7-1.3-0.7-1.4s0-0.1,0.3-0.1C66.7,7.8,67,7.9,67.3,8z M31.4,16.7
	c0.1,0,0.8,0.4,1.5,0.8s2,1.1,3,1.5c1.3,0.6,1.7,0.9,1.7,1s-0.2,0.8-0.5,1.6c-1.3,3.9-2.2,8-2.6,12.1c0,0.5-0.1,0.9-0.1,1.1V35h-5
	c-2.8,0-5.3,0-5.6,0c-0.5,0-0.5-0.1-0.6-0.2c-0.2-0.7,0.2-3.5,0.9-6c1.1-4.1,3-7.9,5.6-11.2c0.7-0.8,0.9-1,1.3-0.9
	C31.1,16.6,31.3,16.7,31.4,16.7z M79.4,16.8c1,0.9,1.8,1.9,2.4,3c2.5,4,4.2,8.5,4.8,13.2c0.1,0.5,0.1,1.2,0.1,1.5V35h-0.3
	c-0.2,0-2.8,0-5.8,0c-4.8,0-5.5,0-5.6-0.1c-0.2-0.6-0.3-1.2-0.3-1.8c-0.5-3.8-1.3-7.6-2.5-11.2c-0.3-1.1-0.4-1.2-0.2-1.4
	c0.2-0.3,0.7-0.6,2.1-1.4s2.4-1.2,3.4-1.9C78.8,16.4,78.9,16.4,79.4,16.8L79.4,16.8z M67.8,22.1c0.5,0.4,1.2,2.4,2,5.6
	c0.6,2.3,0.9,4.6,1,7V35H57v-0.3c-0.1-0.5-0.1-9.2,0-9.6s0.4-0.5,2.5-1c2-0.4,4-0.9,6-1.6c0.7-0.2,1.3-0.4,2-0.6
	C67.6,22,67.8,22,67.8,22.1z M43.1,22.2c0.3,0.1,1.3,0.4,2.1,0.6c1.9,0.6,3.9,1.1,5.8,1.4c1,0.1,1.2,0.2,1.5,0.5l0.2,0.2V35H46
	c-3.8,0-6.9,0-7-0.1c-0.3-0.3,0.2-3.7,0.8-6.5c0.5-2,1.1-4,1.8-6C41.9,22,42.2,21.9,43.1,22.2z M34.3,39.5c0.1,0.5,0.2,1,0.3,1.5
	c0.1,0.8,0.2,1.8,0.3,2.3c0.6,3.3,1.4,6.6,2.6,9.7c0.2,0.4,0.3,0.8,0.4,1.3L37,54.7c-1.9,0.9-3.7,1.8-5.5,2.9
	c-0.3,0.2-0.7,0.4-1,0.6c-0.1,0.1-0.5-0.3-1.2-1.2c-2.3-2.9-4-6.3-5-9.9c-0.8-2.8-1.4-6.5-1.1-7.2c0.2-0.4,0.8-0.5,6.5-0.5
	C33.6,39.5,34.2,39.5,34.3,39.5z M52.2,39.5c0.2,0.1,0.3,0.1,0.5,0.3l0.2,0.2v5c0,4.8,0,5-0.1,5.1s-0.4,0.1-0.8,0.1
	c-2.9,0.3-5.8,1-8.6,2c-1.8,0.7-1.6,0.6-1.7,0.5C41,50.9,40.4,49,40,47c-0.5-2.1-0.8-4.3-1-6.4c0-0.9,0.1-1,1.5-1.1
	C41.7,39.4,51.8,39.4,52.2,39.5z M70.3,39.6c0.5,0.2,0.6,0.6,0.3,2.5c-0.4,2.7-1,5.4-1.8,8c-0.6,2-1,2.8-1.1,2.8
	c-0.3-0.1-0.6-0.2-0.9-0.3c-2-0.8-4-1.4-6-1.8c-1-0.2-1.6-0.3-3.2-0.6c-0.5-0.1-0.5-0.1-0.6-0.3s-0.1-1.8,0-5V40l0.2-0.2
	c0.4-0.4,1.3-0.4,7.9-0.4C69.6,39.5,70.1,39.5,70.3,39.6z M86.2,39.6c0.1,0.1,0.3,0.2,0.4,0.3c0.1,0.2,0.1,0.2,0.1,1
	c-0.4,3.7-1.5,7.3-3.1,10.6C82.5,53.9,81,56,79.3,58l-0.4,0.5l-0.6-0.4C76.6,57,74.8,56,73,55.2c-1.3-0.7-1.3-0.6-0.9-2
	c1-3.2,1.4-4.5,1.8-6.2c0.4-1.8,0.7-3.7,0.9-5.6c0.1-1,0.2-1.3,0.4-1.5c0.5-0.3,1.7-0.4,7-0.3C85.6,39.5,86,39.5,86.2,39.6
	L86.2,39.6z M52.3,54.8c0.1,0.1,0.3,0.1,0.4,0.2l0.2,0.2v4.9c0,2.7,0,5.8,0,7v2h-0.6c-0.7,0-1.3-0.1-2-0.2c-0.3-0.1-0.4-0.1-0.8-0.6
	c-0.5-0.7-1.6-2.2-2.1-3.2c-1.5-2.4-2.7-4.9-3.7-7.5c-0.1-0.3-0.1-0.4,0-0.6s0.5-0.5,1.5-0.8c1.8-0.6,3.6-1,5.4-1.2
	C51.1,54.7,51.7,54.7,52.3,54.8z M60.1,55c1,0.2,2,0.3,3.3,0.7c2.1,0.5,2.8,0.8,2.8,1.2c-0.9,2.2-1.9,4.3-3.1,6.3
	c-1,1.8-2.1,3.4-3.3,5.1l-0.4,0.6L58.8,69c-0.3,0-0.8,0.1-1.2,0.1c-0.6,0-0.6,0-0.7-0.1s-0.1-13.4,0-13.7s0.4-0.4,1.5-0.4
	C59,54.9,59.7,54.9,60.1,55L60.1,55z M39.5,58.4c0.3,0.4,0.5,0.8,0.7,1.3c1,2.3,2.2,4.5,3.5,6.6c0.4,0.6,0.5,0.9,0.5,1
	c-0.9-0.2-1.8-0.5-2.7-0.9c-2.4-1-4.7-2.4-6.8-4c-0.7-0.6-0.8-0.8-0.1-1.3c1.4-1,3-1.9,4.6-2.6h0.2C39.3,58.5,39.4,58.4,39.5,58.4z
	 M71.1,58.6c1.7,0.6,3.2,1.5,4.6,2.6c0.1,0.2,0.1,0.2-0.7,0.9c-2.4,1.9-5.1,3.5-8,4.6c-1.2,0.4-1.2,0.4-1.2,0.3
	c0.3-0.7,0.6-1.3,1-1.8c0.9-1.6,1.7-3.2,2.5-4.8c0.7-1.6,0.8-1.8,1.3-1.8C70.7,58.5,70.9,58.6,71.1,58.6z"/>
<g class="st1">
	<path class="st0" d="M6,120.5c-1.9-1.9-2.9-4.1-2.9-6.8c0-2.7,1-4.9,2.9-6.8s4.2-2.8,7-2.8s5,0.9,7,2.8c1.9,1.9,2.9,4.1,2.9,6.8
		c0,2.7-1,4.9-2.9,6.8s-4.2,2.8-7,2.8S7.9,122.4,6,120.5z M7.4,119.3c1.5,1.5,3.3,2.2,5.5,2.2s4-0.7,5.5-2.2s2.2-3.3,2.2-5.5
		s-0.8-4-2.2-5.5c-1.5-1.5-3.3-2.2-5.5-2.2s-4,0.7-5.5,2.2s-2.3,3.3-2.3,5.5C5.2,115.9,5.9,117.8,7.4,119.3z"/>
	<path class="st0" d="M27.3,123.1v-18.6h1.8l11.7,15v-15h2v18.6H41l-11.7-15v15H27.3z"/>
	<path class="st0" d="M48.6,123.1v-18.6h2v16.8h9.8v1.9H48.6V123.1z"/>
	<path class="st0" d="M63.8,123.1v-18.6h2v18.6H63.8z"/>
	<path class="st0" d="M71.6,123.1v-18.6h1.8l11.7,15v-15h2v18.6h-1.8l-11.7-15v15H71.6z"/>
	<path class="st0" d="M92.9,123.1v-18.6H106v1.9H95v6.1h8.9v1.9H95v6.9h11.3v1.9H92.9V123.1z"/>
</g>
</svg>
