<svg version="1.2" baseProfile="tiny" xmlns="http://www.w3.org/2000/svg" xmlns:xlink="http://www.w3.org/1999/xlink" x="0px" y="0px" viewBox="0 0 24 24" xml:space="preserve" class="my-0 mx-0" width="28">
                                    <path fill="#FF0200" d="M13.9,11.8l-2.7-1.3c-0.2-0.1-0.4,0-0.4,0.3v2.4c0,0.3,0.2,0.4,0.4,0.3l2.7-1.3
	C14.2,12.1,14.2,11.9,13.9,11.8z M12,0.5C5.6,0.5,0.5,5.6,0.5,12c0,6.4,5.2,11.5,11.5,11.5c6.4,0,11.5-5.2,11.5-11.5
	C23.5,5.6,18.4,0.5,12,0.5z M12,16.7c-5.9,0-6-0.5-6-4.7c0-4.1,0.1-4.7,6-4.7c5.9,0,6,0.5,6,4.7C18,16.1,17.9,16.7,12,16.7z" />
</svg>