<?xml version="1.0" encoding="utf-8"?>
<!-- Generator: Adobe Illustrator 23.0.1, SVG Export Plug-In . SVG Version: 6.00 Build 0)  -->
<svg version="1.1" id="Слой_1" xmlns="http://www.w3.org/2000/svg" xmlns:xlink="http://www.w3.org/1999/xlink" x="0px" y="0px"
	 viewBox="0 0 24 24" style="enable-background:new 0 0 24 24;" xml:space="preserve">
<style type="text/css">
	.st0{fill:#FFFFFF;}
	.st1{fill:#059BE5;}
</style>
<path class="st0" d="M16.8,6.6l-12,4.7c0,0-0.5,0.2-0.5,0.6c0,0.3,0.5,0.5,0.5,0.5l3,1l7.3-4.6c0,0,0.4-0.3,0.4,0c0,0,0,0.1-0.2,0.3
	l-5.7,5.2l0,0c0,0-0.5,2-0.6,2.6c0,0.2-0.1,0.4,0,0.6c0.1,0.1,0.2,0.2,0.4,0.1s0.4-0.3,0.5-0.4c0.4-0.3,0.7-0.7,1.1-1
	c0,0,0.3-0.3,0.5-0.4l3,2.3c0.9,0.3,1.2-0.4,1.2-0.4l2.1-10.8C17.8,6.2,16.8,6.6,16.8,6.6z"/>
<path class="st1" d="M11.5,15.8"/>
</svg>
