<?xml version="1.0" encoding="utf-8"?>
<!-- Generator: Adobe Illustrator 23.0.1, SVG Export Plug-In . SVG Version: 6.00 Build 0)  -->
<svg version="1.1" id="Слой_1" xmlns="http://www.w3.org/2000/svg" xmlns:xlink="http://www.w3.org/1999/xlink" x="0px" y="0px"
	 viewBox="0 0 431.1 35" style="enable-background:new 0 0 431.1 35;" xml:space="preserve">
<style type="text/css">
	.st0{fill:#FF3000;}
</style>
<g>
	<g>
		<g>
			<path class="st0" d="M0.2,29.4L5.1,1h7.3l5.7,15.2L23.7,1H31l4.8,28.4h-7.4L25.9,13l-6.7,16.4h-2.9L10,13.1L7.6,29.4H0.2z"/>
			<path class="st0" d="M38.8,15.2c0-2.1,0.4-4.1,1.2-5.9s1.9-3.4,3.2-4.8c1.4-1.4,3-2.4,5-3.2c1.9-0.8,4-1.2,6.4-1.2
				c2.3,0,4.4,0.4,6.3,1.2c1.9,0.8,3.6,1.8,5,3.2s2.5,2.9,3.3,4.8c0.8,1.8,1.2,3.8,1.2,5.9s-0.4,4.1-1.2,5.9
				c-0.8,1.8-1.9,3.4-3.3,4.8s-3.1,2.4-5,3.2c-1.9,0.8-4,1.2-6.3,1.2s-4.4-0.4-6.4-1.2c-1.9-0.8-3.6-1.8-5-3.2
				c-1.4-1.4-2.5-2.9-3.2-4.8C39.2,19.3,38.8,17.3,38.8,15.2z M46.6,15.2c0,1.1,0.2,2.2,0.6,3.1c0.4,1,1,1.8,1.7,2.5
				s1.6,1.3,2.5,1.6c1,0.4,2,0.6,3.1,0.6s2.1-0.2,3.1-0.6s1.8-0.9,2.6-1.6c0.7-0.7,1.3-1.5,1.8-2.5c0.4-1,0.6-2,0.6-3.1
				S62.4,13,62,12.1c-0.4-1-1-1.8-1.8-2.5c-0.7-0.7-1.6-1.3-2.6-1.6c-1-0.4-2-0.6-3.1-0.6S52.4,7.6,51.4,8c-1,0.4-1.8,0.9-2.5,1.6
				s-1.3,1.5-1.7,2.5C46.8,13,46.6,14.1,46.6,15.2z"/>
			<path class="st0" d="M81.9,12h10.7V1h7.4v28.4h-7.4V17.7H81.9v11.7h-7.4V1h7.4V12z"/>
			<path class="st0" d="M116.3,7.3v22.2h-7.4V7.3h-6.1V1h19.5v6.3H116.3z"/>
			<path class="st0" d="M141.4,7.3h-8.8V12h8.3v6.3h-8.3v4.9h8.8v6.3h-16.2V1h16.2V7.3z"/>
			<path class="st0" d="M166.7,10.5c-1.7-2.1-3.8-3.1-6.3-3.1c-1.1,0-2.1,0.2-3.1,0.6c-0.9,0.4-1.8,0.9-2.4,1.6
				c-0.7,0.7-1.2,1.5-1.6,2.5c-0.4,1-0.6,2-0.6,3.1s0.2,2.2,0.6,3.1c0.4,1,0.9,1.8,1.6,2.5c0.7,0.7,1.5,1.3,2.4,1.7
				c0.9,0.4,1.9,0.6,3,0.6c2.4,0,4.5-1,6.4-3v8.8l-0.8,0.3c-1.1,0.4-2.2,0.7-3.2,0.9c-1,0.2-1.9,0.3-2.9,0.3c-2,0-3.8-0.4-5.6-1.1
				s-3.4-1.8-4.8-3.1c-1.4-1.3-2.5-2.9-3.3-4.8c-0.8-1.8-1.2-3.9-1.2-6.1s0.4-4.2,1.2-6s1.9-3.4,3.3-4.7c1.4-1.3,3-2.4,4.8-3.1
				s3.7-1.1,5.7-1.1c1.1,0,2.2,0.1,3.3,0.4c1.1,0.2,2.2,0.6,3.5,1.1L166.7,10.5L166.7,10.5z"/>
			<path class="st0" d="M191.5,10.5c-1.7-2.1-3.8-3.1-6.3-3.1C184,7.4,183,7.6,182,8c-0.9,0.4-1.8,0.9-2.4,1.6
				c-0.7,0.7-1.2,1.5-1.6,2.5c-0.4,1-0.6,2-0.6,3.1s0.2,2.2,0.6,3.1c0.4,1,0.9,1.8,1.6,2.5c0.7,0.7,1.5,1.3,2.4,1.7
				c0.9,0.4,1.9,0.6,3,0.6c2.4,0,4.5-1,6.4-3v8.8l-0.8,0.3c-1.1,0.4-2.2,0.7-3.2,0.9c-1,0.2-1.9,0.3-2.9,0.3c-2,0-3.8-0.4-5.6-1.1
				s-3.4-1.8-4.8-3.1c-1.4-1.3-2.5-2.9-3.3-4.8c-0.8-1.8-1.2-3.9-1.2-6.1s0.4-4.2,1.2-6s1.9-3.4,3.3-4.7c1.4-1.3,3-2.4,4.8-3.1
				s3.7-1.1,5.7-1.1c1.1,0,2.2,0.1,3.3,0.4c1.1,0.2,2.2,0.6,3.5,1.1v8.6C191.4,10.5,191.5,10.5,191.5,10.5z"/>
			<path class="st0" d="M194.8,15.2c0-2.1,0.4-4.1,1.2-5.9s1.9-3.4,3.2-4.8c1.4-1.4,3-2.4,5-3.2c1.9-0.8,4-1.2,6.4-1.2
				c2.3,0,4.4,0.4,6.3,1.2c1.9,0.8,3.6,1.8,5,3.2s2.5,2.9,3.3,4.8c0.8,1.8,1.2,3.8,1.2,5.9s-0.4,4.1-1.2,5.9s-1.9,3.4-3.3,4.8
				c-1.4,1.4-3.1,2.4-5,3.2c-1.9,0.8-4,1.2-6.3,1.2s-4.4-0.4-6.4-1.2c-1.9-0.8-3.6-1.8-5-3.2c-1.4-1.4-2.5-2.9-3.2-4.8
				C195.2,19.3,194.8,17.3,194.8,15.2z M202.5,15.2c0,1.1,0.2,2.2,0.6,3.1c0.4,1,1,1.8,1.7,2.5s1.6,1.3,2.5,1.6c1,0.4,2,0.6,3.1,0.6
				s2.1-0.2,3.1-0.6s1.8-0.9,2.6-1.6c0.7-0.7,1.3-1.5,1.8-2.5c0.4-1,0.6-2,0.6-3.1s-0.2-2.2-0.6-3.1c-0.4-1-1-1.8-1.8-2.5
				c-0.7-0.7-1.6-1.3-2.6-1.6c-1-0.4-2-0.6-3.1-0.6s-2.1,0.2-3.1,0.6s-1.8,0.9-2.5,1.6s-1.3,1.5-1.7,2.5
				C202.8,13,202.5,14.1,202.5,15.2z"/>
			<path class="st0" d="M237.9,29.4h-7.4V1h11.8c3.2,0,5.6,0.8,7.3,2.5s2.5,4,2.5,7s-0.8,5.4-2.5,7c-1.7,1.7-4.1,2.5-7.3,2.5h-4.4
				L237.9,29.4L237.9,29.4z M237.9,14h2.5c2.7,0,4.1-1.2,4.1-3.5c0-2.4-1.4-3.5-4.1-3.5h-2.5V14z"/>
			<path class="st0" d="M263.1,1v17.4L276.7,1h7.4v28.4h-7.4V12l-13.6,17.4h-7.4V1H263.1z"/>
			<path class="st0" d="M332,23.2v11.6h-7.4v-5.3h-21.7V1h7.4v22.2H321V1h7.4v22.2H332z"/>
			<path class="st0" d="M352.3,7.3h-8.8V12h8.3v6.3h-8.3v4.9h8.8v6.3h-16.2V1h16.2V7.3z"/>
			<path class="st0" d="M365,12h10.7V1h7.4v28.4h-7.4V17.7H365v11.7h-7.4V1h7.4V12z"/>
			<path class="st0" d="M399.8,7.3v22.2h-7.4V7.3h-6.1V1h19.5v6.3H399.8z"/>
			<path class="st0" d="M416.6,29.4h-7.4V1H421c3.2,0,5.6,0.8,7.3,2.5c1.7,1.7,2.5,4,2.5,7s-0.8,5.4-2.5,7c-1.7,1.7-4.1,2.5-7.3,2.5
				h-4.4V29.4z M416.6,14h2.5c2.7,0,4.1-1.2,4.1-3.5c0-2.4-1.4-3.5-4.1-3.5h-2.5V14z"/>
		</g>
	</g>
</g>
</svg>
