<?xml version="1.0" encoding="utf-8"?>
<!-- Generator: Adobe Illustrator 23.0.1, SVG Export Plug-In . SVG Version: 6.00 Build 0)  -->
<svg version="1.1" id="Слой_1" xmlns="http://www.w3.org/2000/svg" xmlns:xlink="http://www.w3.org/1999/xlink" x="0px" y="0px"
	 viewBox="0 0 566.9 99" style="enable-background:new 0 0 566.9 99;" xml:space="preserve">
<style type="text/css">
	.st0{fill:#4415CC;}
	.st1{fill:#F31E1E;}
</style>
<g>
	<path class="st0" d="M7.5,67.3v24.1H1.2V67.3H7.5z"/>
	<path class="st0" d="M12,91.4V67.3h6.3L29.8,82V67.3H36v24.1h-6.2L18.2,76.7v14.7H12z"/>
	<path class="st0" d="M49.6,72.6v18.8h-6.3V72.6h-5.1v-5.3h16.5v5.3H49.6z"/>
	<path class="st0" d="M70.7,72.6h-7.4v4h7v5.3h-7v4.1h7.4v5.3H57V67.3h13.7V72.6z"/>
	<path class="st0" d="M94.6,91.4h-7.8l-6-9.3v9.3h-6.3V67.3h9.7c1.3,0,2.5,0.2,3.5,0.6c1,0.4,1.8,0.9,2.5,1.6
		c0.6,0.7,1.1,1.5,1.5,2.4c0.3,0.9,0.5,1.9,0.5,2.9c0,1.8-0.4,3.3-1.3,4.4c-0.9,1.1-2.2,1.9-3.9,2.3L94.6,91.4z M80.9,78.1h1.2
		c1.2,0,2.2-0.3,2.8-0.8c0.7-0.5,1-1.2,1-2.2s-0.3-1.7-1-2.2c-0.7-0.5-1.6-0.8-2.8-0.8h-1.2V78.1z"/>
	<path class="st0" d="M96.7,91.4V67.3h6.3L114.5,82V67.3h6.2v24.1h-6.2L103,76.7v14.7H96.7z"/>
	<path class="st0" d="M140,87.2h-8.9l-1.4,4.2H123l9.2-24.1h6.8l9.2,24.1h-6.7L140,87.2z M138.4,82.4l-2.8-8l-2.8,8H138.4z"/>
	<path class="st0" d="M158.4,72.6v18.8h-6.3V72.6H147v-5.3h16.5v5.3H158.4z"/>
	<path class="st0" d="M172,67.3v24.1h-6.3V67.3H172z"/>
	<path class="st0" d="M175.4,79.3c0-1.8,0.3-3.5,1-5c0.7-1.5,1.6-2.9,2.7-4c1.2-1.1,2.6-2,4.2-2.7c1.6-0.6,3.4-1,5.4-1
		c1.9,0,3.7,0.3,5.4,1c1.6,0.6,3,1.5,4.2,2.7c1.2,1.1,2.1,2.5,2.8,4c0.7,1.5,1,3.2,1,5c0,1.8-0.3,3.5-1,5s-1.6,2.9-2.8,4
		c-1.2,1.1-2.6,2-4.2,2.7s-3.4,1-5.4,1c-2,0-3.7-0.3-5.4-1s-3-1.5-4.2-2.7c-1.2-1.1-2.1-2.5-2.7-4C175.8,82.8,175.4,81.1,175.4,79.3
		z M182,79.3c0,1,0.2,1.8,0.5,2.6c0.4,0.8,0.8,1.5,1.5,2.1s1.3,1.1,2.2,1.4c0.8,0.3,1.7,0.5,2.6,0.5s1.8-0.2,2.6-0.5
		c0.8-0.3,1.5-0.8,2.2-1.4c0.6-0.6,1.1-1.3,1.5-2.1c0.4-0.8,0.5-1.7,0.5-2.6s-0.2-1.8-0.5-2.6c-0.4-0.8-0.9-1.5-1.5-2.1
		c-0.6-0.6-1.4-1.1-2.2-1.4c-0.8-0.3-1.7-0.5-2.6-0.5s-1.8,0.2-2.6,0.5c-0.8,0.3-1.5,0.8-2.2,1.4c-0.6,0.6-1.1,1.3-1.5,2.1
		C182.2,77.5,182,78.4,182,79.3z"/>
	<path class="st0" d="M205.5,91.4V67.3h6.3L223.3,82V67.3h6.2v24.1h-6.2l-11.5-14.7v14.7H205.5z"/>
	<path class="st0" d="M248.8,87.2h-8.9l-1.4,4.2h-6.7l9.2-24.1h6.8l9.2,24.1h-6.7L248.8,87.2z M247.2,82.4l-2.8-8l-2.8,8H247.2z"/>
	<path class="st0" d="M265.4,67.3v18.8h7.5v5.3h-13.7V67.3H265.4z"/>
	<path class="st0" d="M284.8,79.3c0-1.8,0.3-3.5,1-5c0.7-1.5,1.6-2.9,2.7-4c1.2-1.1,2.6-2,4.2-2.7c1.6-0.6,3.4-1,5.4-1
		c1.9,0,3.7,0.3,5.4,1c1.6,0.6,3,1.5,4.2,2.7c1.2,1.1,2.1,2.5,2.8,4c0.7,1.5,1,3.2,1,5c0,1.8-0.3,3.5-1,5s-1.6,2.9-2.8,4
		c-1.2,1.1-2.6,2-4.2,2.7s-3.4,1-5.4,1c-2,0-3.7-0.3-5.4-1s-3-1.5-4.2-2.7c-1.2-1.1-2.1-2.5-2.7-4C285.1,82.8,284.8,81.1,284.8,79.3
		z M291.3,79.3c0,1,0.2,1.8,0.5,2.6c0.4,0.8,0.8,1.5,1.5,2.1s1.3,1.1,2.2,1.4c0.8,0.3,1.7,0.5,2.6,0.5s1.8-0.2,2.6-0.5
		c0.8-0.3,1.5-0.8,2.2-1.4c0.6-0.6,1.1-1.3,1.5-2.1c0.4-0.8,0.5-1.7,0.5-2.6s-0.2-1.8-0.5-2.6c-0.4-0.8-0.9-1.5-1.5-2.1
		c-0.6-0.6-1.4-1.1-2.2-1.4c-0.8-0.3-1.7-0.5-2.6-0.5s-1.8,0.2-2.6,0.5c-0.8,0.3-1.5,0.8-2.2,1.4c-0.6,0.6-1.1,1.3-1.5,2.1
		C291.5,77.5,291.3,78.4,291.3,79.3z"/>
	<path class="st0" d="M314.8,91.4V67.3h6.3L332.6,82V67.3h6.2v24.1h-6.2l-11.5-14.7v14.7H314.8z"/>
	<path class="st0" d="M349.6,67.3v18.8h7.5v5.3h-13.7V67.3H349.6z"/>
	<path class="st0" d="M366,67.3v24.1h-6.3V67.3H366z"/>
	<path class="st0" d="M370.5,91.4V67.3h6.3L388.3,82V67.3h6.2v24.1h-6.2l-11.5-14.7v14.7H370.5z"/>
	<path class="st0" d="M412.7,72.6h-7.4v4h7v5.3h-7v4.1h7.4v5.3H399V67.3h13.7V72.6z"/>
	<path class="st0" d="M440.2,73.5c-0.7-0.6-1.4-1-2-1.2c-0.7-0.3-1.3-0.4-2-0.4c-0.8,0-1.5,0.2-2,0.6s-0.8,0.9-0.8,1.5
		c0,0.4,0.1,0.8,0.4,1.1c0.3,0.3,0.6,0.5,1,0.7c0.4,0.2,0.9,0.4,1.4,0.5c0.5,0.1,1,0.3,1.5,0.5c2,0.7,3.5,1.6,4.5,2.7
		s1.4,2.6,1.4,4.4c0,1.2-0.2,2.4-0.6,3.3c-0.4,1-1,1.9-1.8,2.6c-0.8,0.7-1.8,1.3-2.9,1.7c-1.2,0.4-2.5,0.6-3.9,0.6
		c-3,0-5.9-0.9-8.5-2.7l2.7-5c0.9,0.8,1.9,1.4,2.8,1.9c0.9,0.4,1.8,0.6,2.7,0.6c1,0,1.8-0.2,2.3-0.7c0.5-0.5,0.7-1,0.7-1.6
		c0-0.4-0.1-0.7-0.2-0.9c-0.1-0.3-0.3-0.5-0.6-0.7c-0.3-0.2-0.7-0.4-1.2-0.6s-1.1-0.4-1.7-0.6c-0.8-0.3-1.6-0.5-2.4-0.8
		s-1.5-0.7-2.1-1.2c-0.6-0.5-1.1-1.2-1.5-1.9s-0.6-1.8-0.6-3s0.2-2.3,0.6-3.2s0.9-1.8,1.7-2.5c0.7-0.7,1.6-1.2,2.6-1.6
		s2.2-0.6,3.5-0.6c1.2,0,2.4,0.2,3.7,0.5c1.3,0.3,2.5,0.8,3.7,1.5L440.2,73.5z"/>
	<path class="st0" d="M464.4,75.4c-1.4-1.8-3.2-2.6-5.4-2.6c-0.9,0-1.8,0.2-2.6,0.5c-0.8,0.3-1.5,0.8-2.1,1.4s-1,1.3-1.4,2.1
		c-0.3,0.8-0.5,1.7-0.5,2.6c0,1,0.2,1.8,0.5,2.6c0.3,0.8,0.8,1.5,1.4,2.1c0.6,0.6,1.3,1.1,2.1,1.4c0.8,0.3,1.6,0.5,2.6,0.5
		c2,0,3.8-0.9,5.4-2.6v7.4l-0.6,0.2c-1,0.3-1.9,0.6-2.7,0.7c-0.8,0.2-1.6,0.2-2.5,0.2c-1.7,0-3.2-0.3-4.8-0.9s-2.9-1.5-4-2.6
		c-1.2-1.1-2.1-2.5-2.8-4.1s-1.1-3.3-1.1-5.1c0-1.9,0.3-3.5,1-5.1c0.7-1.5,1.6-2.9,2.8-4s2.5-2,4-2.6c1.5-0.6,3.1-0.9,4.8-0.9
		c1,0,1.9,0.1,2.8,0.3c0.9,0.2,1.9,0.5,2.9,0.9V75.4z"/>
	<path class="st0" d="M475,76.6h9v-9.3h6.3v24.1h-6.3v-9.9h-9v9.9h-6.3V67.3h6.3V76.6z"/>
	<path class="st0" d="M493.7,79.3c0-1.8,0.3-3.5,1-5c0.7-1.5,1.6-2.9,2.7-4c1.2-1.1,2.6-2,4.2-2.7c1.6-0.6,3.4-1,5.4-1
		c1.9,0,3.7,0.3,5.4,1c1.6,0.6,3,1.5,4.2,2.7c1.2,1.1,2.1,2.5,2.8,4c0.7,1.5,1,3.2,1,5c0,1.8-0.3,3.5-1,5s-1.6,2.9-2.8,4
		c-1.2,1.1-2.6,2-4.2,2.7c-1.6,0.6-3.4,1-5.4,1c-2,0-3.7-0.3-5.4-1s-3-1.5-4.2-2.7c-1.2-1.1-2.1-2.5-2.7-4
		C494.1,82.8,493.7,81.1,493.7,79.3z M500.3,79.3c0,1,0.2,1.8,0.5,2.6c0.4,0.8,0.8,1.5,1.5,2.1s1.3,1.1,2.2,1.4
		c0.8,0.3,1.7,0.5,2.6,0.5s1.8-0.2,2.6-0.5c0.8-0.3,1.5-0.8,2.2-1.4c0.6-0.6,1.1-1.3,1.5-2.1c0.4-0.8,0.5-1.7,0.5-2.6
		s-0.2-1.8-0.5-2.6c-0.4-0.8-0.9-1.5-1.5-2.1c-0.6-0.6-1.4-1.1-2.2-1.4c-0.8-0.3-1.7-0.5-2.6-0.5s-1.8,0.2-2.6,0.5
		c-0.8,0.3-1.5,0.8-2.2,1.4c-0.6,0.6-1.1,1.3-1.5,2.1C500.5,77.5,500.3,78.4,500.3,79.3z"/>
	<path class="st0" d="M522.7,79.3c0-1.8,0.3-3.5,1-5c0.7-1.5,1.6-2.9,2.7-4c1.2-1.1,2.6-2,4.2-2.7c1.6-0.6,3.4-1,5.4-1
		c1.9,0,3.7,0.3,5.4,1c1.6,0.6,3,1.5,4.2,2.7c1.2,1.1,2.1,2.5,2.8,4c0.7,1.5,1,3.2,1,5c0,1.8-0.3,3.5-1,5s-1.6,2.9-2.8,4
		c-1.2,1.1-2.6,2-4.2,2.7s-3.4,1-5.4,1c-2,0-3.7-0.3-5.4-1s-3-1.5-4.2-2.7c-1.2-1.1-2.1-2.5-2.7-4C523,82.8,522.7,81.1,522.7,79.3z
		 M529.2,79.3c0,1,0.2,1.8,0.5,2.6c0.4,0.8,0.8,1.5,1.5,2.1s1.3,1.1,2.2,1.4c0.8,0.3,1.7,0.5,2.6,0.5s1.8-0.2,2.6-0.5
		c0.8-0.3,1.5-0.8,2.2-1.4c0.6-0.6,1.1-1.3,1.5-2.1c0.4-0.8,0.5-1.7,0.5-2.6s-0.2-1.8-0.5-2.6c-0.4-0.8-0.9-1.5-1.5-2.1
		c-0.6-0.6-1.4-1.1-2.2-1.4c-0.8-0.3-1.7-0.5-2.6-0.5s-1.8,0.2-2.6,0.5c-0.8,0.3-1.5,0.8-2.2,1.4c-0.6,0.6-1.1,1.3-1.5,2.1
		C529.4,77.5,529.2,78.4,529.2,79.3z"/>
	<path class="st0" d="M559,67.3v18.8h7.5v5.3h-13.7V67.3H559z"/>
</g>
<g>
	<path class="st1" d="M0.3,49l6.5-38.3h9.9l7.7,20.4L32,10.7h9.9L48.4,49h-9.9L35.2,27l-9,22.1h-4L13.6,27L10.3,49H0.3z"/>
	<path class="st1" d="M51.5,29.9c0-2.8,0.5-5.5,1.6-8c1-2.5,2.5-4.6,4.4-6.4c1.9-1.8,4.1-3.3,6.7-4.3c2.6-1,5.4-1.6,8.6-1.6
		c3.1,0,5.9,0.5,8.5,1.6c2.6,1,4.9,2.5,6.7,4.3c1.9,1.8,3.3,4,4.4,6.4c1,2.5,1.6,5.1,1.6,8c0,2.8-0.5,5.5-1.6,8
		c-1.1,2.5-2.5,4.6-4.4,6.4c-1.9,1.8-4.1,3.3-6.7,4.3c-2.6,1-5.5,1.6-8.5,1.6c-3.1,0-6-0.5-8.6-1.6s-4.8-2.5-6.7-4.3
		c-1.9-1.8-3.3-4-4.4-6.4C52,35.3,51.5,32.7,51.5,29.9z M61.9,29.9c0,1.5,0.3,2.9,0.9,4.2c0.6,1.3,1.4,2.4,2.3,3.4
		c1,0.9,2.1,1.7,3.4,2.2c1.3,0.5,2.7,0.8,4.1,0.8s2.8-0.3,4.1-0.8c1.3-0.5,2.5-1.3,3.5-2.2c1-0.9,1.8-2.1,2.4-3.4
		c0.6-1.3,0.9-2.7,0.9-4.2s-0.3-2.9-0.9-4.2c-0.6-1.3-1.4-2.4-2.4-3.4c-1-0.9-2.2-1.7-3.5-2.2c-1.3-0.5-2.7-0.8-4.1-0.8
		s-2.8,0.3-4.1,0.8c-1.3,0.5-2.4,1.3-3.4,2.2c-1,0.9-1.8,2.1-2.3,3.4C62.2,26.9,61.9,28.3,61.9,29.9z"/>
	<path class="st1" d="M98.8,49V10.7h10l18.4,23.4V10.7h9.9V49h-9.9l-18.4-23.4V49H98.8z"/>
	<path class="st1" d="M158.1,19.1V49h-10V19.1H140v-8.4h26.3v8.4H158.1z"/>
	<path class="st1" d="M191.1,19.1h-11.8v6.4h11.2V34h-11.2v6.6h11.8V49h-21.8V10.7h21.8V19.1z"/>
	<path class="st1" d="M217.8,20.5c-1.1-0.9-2.2-1.5-3.3-2c-1.1-0.4-2.1-0.6-3.2-0.6c-1.3,0-2.3,0.3-3.2,0.9
		c-0.8,0.6-1.2,1.4-1.2,2.4c0,0.7,0.2,1.2,0.6,1.7c0.4,0.4,0.9,0.8,1.6,1.1c0.7,0.3,1.4,0.6,2.2,0.8c0.8,0.2,1.7,0.5,2.5,0.8
		c3.3,1.1,5.6,2.5,7.1,4.3c1.5,1.8,2.3,4.2,2.3,7.1c0,2-0.3,3.7-1,5.3c-0.7,1.6-1.6,3-2.9,4.1c-1.3,1.1-2.8,2-4.7,2.6
		c-1.8,0.6-3.9,0.9-6.3,0.9c-4.8,0-9.3-1.4-13.5-4.3l4.3-8c1.5,1.3,3,2.3,4.4,2.9c1.5,0.6,2.9,1,4.3,1c1.6,0,2.8-0.4,3.6-1.1
		c0.8-0.7,1.2-1.6,1.2-2.5c0-0.6-0.1-1.1-0.3-1.5c-0.2-0.4-0.5-0.8-1-1.2c-0.5-0.4-1.1-0.7-1.9-1c-0.8-0.3-1.7-0.6-2.8-1
		c-1.3-0.4-2.5-0.9-3.8-1.3s-2.3-1.1-3.3-2c-1-0.8-1.7-1.8-2.3-3.1c-0.6-1.2-0.9-2.8-0.9-4.7c0-1.9,0.3-3.6,0.9-5.2
		c0.6-1.5,1.5-2.9,2.6-4c1.1-1.1,2.5-2,4.2-2.6c1.6-0.6,3.5-0.9,5.5-0.9c1.9,0,3.9,0.3,5.9,0.8c2.1,0.5,4,1.3,5.9,2.3L217.8,20.5z"
		/>
	<path class="st1" d="M249.2,20.5c-1.1-0.9-2.2-1.5-3.3-2c-1.1-0.4-2.1-0.6-3.2-0.6c-1.3,0-2.3,0.3-3.2,0.9
		c-0.8,0.6-1.2,1.4-1.2,2.4c0,0.7,0.2,1.2,0.6,1.7c0.4,0.4,0.9,0.8,1.6,1.1c0.7,0.3,1.4,0.6,2.2,0.8c0.8,0.2,1.7,0.5,2.5,0.8
		c3.3,1.1,5.6,2.5,7.1,4.3c1.5,1.8,2.3,4.2,2.3,7.1c0,2-0.3,3.7-1,5.3c-0.7,1.6-1.6,3-2.9,4.1c-1.3,1.1-2.8,2-4.7,2.6
		c-1.8,0.6-3.9,0.9-6.3,0.9c-4.8,0-9.3-1.4-13.5-4.3l4.3-8c1.5,1.3,3,2.3,4.4,2.9c1.5,0.6,2.9,1,4.3,1c1.6,0,2.8-0.4,3.6-1.1
		c0.8-0.7,1.2-1.6,1.2-2.5c0-0.6-0.1-1.1-0.3-1.5c-0.2-0.4-0.5-0.8-1-1.2c-0.5-0.4-1.1-0.7-1.9-1c-0.8-0.3-1.7-0.6-2.8-1
		c-1.3-0.4-2.5-0.9-3.8-1.3s-2.3-1.1-3.3-2c-1-0.8-1.7-1.8-2.3-3.1c-0.6-1.2-0.9-2.8-0.9-4.7c0-1.9,0.3-3.6,0.9-5.2
		c0.6-1.5,1.5-2.9,2.6-4c1.1-1.1,2.5-2,4.2-2.6c1.6-0.6,3.5-0.9,5.5-0.9c1.9,0,3.9,0.3,5.9,0.8c2.1,0.5,4,1.3,5.9,2.3L249.2,20.5z"
		/>
	<path class="st1" d="M257.8,29.9c0-2.8,0.5-5.5,1.6-8c1-2.5,2.5-4.6,4.4-6.4c1.9-1.8,4.1-3.3,6.7-4.3c2.6-1,5.4-1.6,8.6-1.6
		c3.1,0,5.9,0.5,8.5,1.6c2.6,1,4.9,2.5,6.7,4.3c1.9,1.8,3.3,4,4.4,6.4c1.1,2.5,1.6,5.1,1.6,8c0,2.8-0.5,5.5-1.6,8
		c-1.1,2.5-2.5,4.6-4.4,6.4c-1.9,1.8-4.1,3.3-6.7,4.3s-5.5,1.6-8.5,1.6c-3.1,0-6-0.5-8.6-1.6s-4.8-2.5-6.7-4.3
		c-1.9-1.8-3.3-4-4.4-6.4C258.3,35.3,257.8,32.7,257.8,29.9z M268.2,29.9c0,1.5,0.3,2.9,0.9,4.2c0.6,1.3,1.4,2.4,2.3,3.4
		c1,0.9,2.1,1.7,3.4,2.2c1.3,0.5,2.7,0.8,4.1,0.8c1.5,0,2.8-0.3,4.1-0.8c1.3-0.5,2.5-1.3,3.5-2.2c1-0.9,1.8-2.1,2.4-3.4
		c0.6-1.3,0.9-2.7,0.9-4.2s-0.3-2.9-0.9-4.2c-0.6-1.3-1.4-2.4-2.4-3.4c-1-0.9-2.2-1.7-3.5-2.2c-1.3-0.5-2.7-0.8-4.1-0.8
		c-1.5,0-2.8,0.3-4.1,0.8s-2.4,1.3-3.4,2.2c-1,0.9-1.8,2.1-2.3,3.4C268.5,26.9,268.2,28.3,268.2,29.9z"/>
	<path class="st1" d="M336.9,49h-12.4L315,34.3V49h-10V10.7h15.5c2.1,0,4,0.3,5.6,0.9c1.6,0.6,2.9,1.5,3.9,2.6
		c1,1.1,1.8,2.3,2.3,3.8c0.5,1.4,0.8,2.9,0.8,4.6c0,2.9-0.7,5.3-2.1,7.1c-1.4,1.8-3.5,3-6.2,3.7L336.9,49z M315,27.8h1.9
		c2,0,3.5-0.4,4.5-1.2c1-0.8,1.6-2,1.6-3.5s-0.5-2.7-1.6-3.5c-1.1-0.8-2.6-1.2-4.5-1.2H315V27.8z"/>
	<path class="st1" d="M349.6,10.7V49h-10V10.7H349.6z"/>
	<path class="st1" d="M401,23.5c-2.3-2.8-5.2-4.2-8.5-4.2c-1.5,0-2.9,0.3-4.1,0.8c-1.3,0.5-2.4,1.3-3.3,2.2c-0.9,0.9-1.6,2-2.2,3.3
		c-0.5,1.3-0.8,2.7-0.8,4.2c0,1.5,0.3,2.9,0.8,4.2c0.5,1.3,1.3,2.4,2.2,3.4c0.9,0.9,2,1.7,3.3,2.2c1.3,0.5,2.6,0.8,4.1,0.8
		c3.2,0,6-1.4,8.6-4.1v11.8l-1,0.4c-1.5,0.5-2.9,0.9-4.3,1.2c-1.3,0.3-2.6,0.4-3.9,0.4c-2.6,0-5.2-0.5-7.6-1.5
		c-2.4-1-4.6-2.4-6.4-4.2c-1.8-1.8-3.3-4-4.4-6.5s-1.7-5.2-1.7-8.2s0.6-5.6,1.7-8.1c1.1-2.5,2.6-4.6,4.4-6.4s4-3.2,6.4-4.2
		c2.4-1,5-1.5,7.7-1.5c1.5,0,3,0.2,4.5,0.5c1.5,0.3,3,0.8,4.7,1.5V23.5z"/>
	<path class="st1" d="M428.3,19.1h-11.8v6.4h11.2V34h-11.2v6.6h11.8V49h-21.8V10.7h21.8V19.1z"/>
	<path class="st1" d="M434.7,49V10.7h10l18.4,23.4V10.7h9.9V49h-9.9l-18.4-23.4V49H434.7z"/>
	<path class="st1" d="M494.8,19.1V49h-10V19.1h-8.2v-8.4H503v8.4H494.8z"/>
	<path class="st1" d="M528.5,19.1h-11.8v6.4h11.2V34h-11.2v6.6h11.8V49h-21.8V10.7h21.8V19.1z"/>
	<path class="st1" d="M566.8,49h-12.4l-9.5-14.7V49h-10V10.7h15.5c2.1,0,4,0.3,5.6,0.9c1.6,0.6,2.9,1.5,3.9,2.6
		c1,1.1,1.8,2.3,2.3,3.8c0.5,1.4,0.8,2.9,0.8,4.6c0,2.9-0.7,5.3-2.1,7.1c-1.4,1.8-3.5,3-6.2,3.7L566.8,49z M544.8,27.8h1.9
		c2,0,3.5-0.4,4.5-1.2c1-0.8,1.6-2,1.6-3.5s-0.5-2.7-1.6-3.5c-1.1-0.8-2.6-1.2-4.5-1.2h-1.9V27.8z"/>
</g>
</svg>
